<svg width="56" height="56" viewBox="0 0 56 56" fill="none" xmlns="http://www.w3.org/2000/svg">
<path d="M53.3488 27.58C53.3306 28.4966 53.0313 29.3854 52.4913 30.1263C50.4088 33.075 47.0225 37.765 44.6775 41.0112C43.8652 42.1303 42.7996 43.0411 41.5677 43.6692C40.3358 44.2973 38.9728 44.6249 37.59 44.625H21.9275L21.42 45.1413L10.92 34.6413L13.3875 32.165C13.8754 31.676 14.4551 31.2883 15.0932 31.024C15.7314 30.7597 16.4155 30.6241 17.1062 30.625H35.9275C36.2722 30.6284 36.6129 30.6998 36.93 30.8349C37.2472 30.97 37.5347 31.1662 37.776 31.4124C38.0173 31.6586 38.2077 31.9499 38.3365 32.2697C38.4652 32.5895 38.5297 32.9315 38.5262 33.2762C38.5228 33.621 38.4515 33.9616 38.3164 34.2788C38.1813 34.596 37.985 34.8834 37.7388 35.1247C37.4927 35.366 37.2013 35.5565 36.8815 35.6852C36.5617 35.814 36.2197 35.8784 35.875 35.875H25.375C25.1429 35.875 24.9204 35.9672 24.7563 36.1313C24.5922 36.2954 24.5 36.5179 24.5 36.75C24.5 36.9821 24.5922 37.2046 24.7563 37.3687C24.9204 37.5328 25.1429 37.625 25.375 37.625H35.875C37.0352 37.6246 38.1478 37.1635 38.9681 36.3431C39.7885 35.5228 40.2496 34.4102 40.25 33.25C40.2482 32.9115 40.2101 32.5741 40.1362 32.2437C41.3787 31.08 46.4188 26.2937 47.3638 25.3575C48.0018 24.6895 48.8752 24.2967 49.7983 24.2624C50.7215 24.2281 51.6216 24.555 52.3075 25.1737C52.6405 25.4791 52.9054 25.8512 53.0848 26.2658C53.2642 26.6804 53.3542 27.1282 53.3488 27.58ZM2.6775 39.375L16.6775 53.375L21.9275 48.125L7.9275 34.125L2.6775 39.375ZM27.1513 28.875H34.1512V21H27.1513V28.875ZM37.6512 29.1725C38.3799 29.4182 39.0439 29.825 39.5938 30.3625C40.6087 29.4 44.0125 26.1712 44.6512 25.5588V14H37.6512V29.1725ZM16.6513 28.9012C16.8023 28.8838 16.9542 28.875 17.1062 28.875H23.6513V26.25H16.6513V28.9012ZM28.0227 15.7491C28.1376 15.7493 28.2514 15.7267 28.3576 15.6827C28.4637 15.6387 28.5601 15.5742 28.6413 15.4928L33.635 10.5H39.3978C39.6097 10.4999 39.8144 10.4231 39.9741 10.2838L46.3978 4.66314V7C46.3978 7.23206 46.4899 7.45462 46.654 7.61872C46.8181 7.78281 47.0407 7.875 47.2728 7.875C47.5048 7.875 47.7274 7.78281 47.8915 7.61872C48.0556 7.45462 48.1478 7.23206 48.1478 7V2.625C48.1478 2.39294 48.0556 2.17038 47.8915 2.00628C47.7274 1.84219 47.5048 1.75 47.2728 1.75H42.8978C42.6657 1.75 42.4431 1.84219 42.279 2.00628C42.1149 2.17038 42.0228 2.39294 42.0228 2.625C42.0228 2.85706 42.1149 3.07962 42.279 3.24372C42.4431 3.40781 42.6657 3.5 42.8978 3.5H45.0685L39.0688 8.75H33.2728C33.1578 8.75001 33.0441 8.77266 32.9379 8.81665C32.8317 8.86064 32.7353 8.92511 32.654 9.00638L27.404 14.2555C27.2817 14.3779 27.1984 14.5338 27.1646 14.7035C27.1309 14.8732 27.1482 15.0491 27.2145 15.209C27.2807 15.3689 27.3928 15.5055 27.5367 15.6016C27.6806 15.6978 27.8496 15.7491 28.0227 15.7491ZM11.375 9.625C11.5481 9.625 11.7172 9.57368 11.8611 9.47754C12.005 9.38139 12.1172 9.24473 12.1834 9.08485C12.2496 8.92496 12.2669 8.74903 12.2332 8.5793C12.1994 8.40956 12.1161 8.25365 11.9937 8.13128C11.8713 8.00891 11.7154 7.92557 11.5457 7.89181C11.376 7.85805 11.2 7.87538 11.0402 7.94161C10.8803 8.00783 10.7436 8.11998 10.6475 8.26388C10.5513 8.40777 10.5 8.57694 10.5 8.75C10.5007 8.98186 10.5931 9.20403 10.757 9.36798C10.921 9.53193 11.1431 9.62433 11.375 9.625ZM2.51125 17.675L3.26375 15.4L1.75 13.125L3.26375 10.85L2.51125 8.575L4.78625 7.81375V4.78625H7.81375L8.575 2.51125L10.85 3.26375L13.125 1.75L15.4 3.26375L17.675 2.51125L18.4362 4.78625H21.4638V7.81375L23.7387 8.575L22.9862 11.6112L24.5 13.125L22.9862 15.4L23.7387 17.675L21.4638 18.4362V21.4638H19.1888L17.675 23.7387L15.4 22.9862L13.125 24.5L10.85 22.9862L8.575 23.7387L7.81375 21.4638H4.78625V18.4362L2.51125 17.675ZM17.5 17.5C17.5 16.9808 17.346 16.4733 17.0576 16.0416C16.7692 15.61 16.3592 15.2735 15.8795 15.0748C15.3999 14.8761 14.8721 14.8242 14.3629 14.9254C13.8537 15.0267 13.386 15.2767 13.0188 15.6438C12.6517 16.011 12.4017 16.4787 12.3004 16.9879C12.1992 17.4971 12.2511 18.0249 12.4498 18.5045C12.6485 18.9842 12.9849 19.3942 13.4166 19.6826C13.8483 19.971 14.3558 20.125 14.875 20.125C15.5706 20.123 16.2371 19.8458 16.7289 19.3539C17.2208 18.8621 17.498 18.1956 17.5 17.5ZM9.1 15.05C8.91491 15.1897 8.79262 15.3969 8.75983 15.6264C8.72704 15.8559 8.78642 16.0891 8.925 16.275C9.00712 16.383 9.11293 16.4707 9.23429 16.5314C9.35565 16.5921 9.48932 16.6241 9.625 16.625C9.81404 16.6233 9.99772 16.562 10.15 16.45L17.15 11.2C17.2419 11.1311 17.3194 11.0447 17.3779 10.9458C17.4365 10.8469 17.475 10.7375 17.4912 10.6237C17.5075 10.51 17.5011 10.3942 17.4726 10.2828C17.4441 10.1715 17.3939 10.0669 17.325 9.975C17.2561 9.88307 17.1697 9.80563 17.0708 9.74708C16.9719 9.68854 16.8625 9.65004 16.7487 9.63379C16.635 9.61754 16.5192 9.62386 16.4078 9.65238C16.2965 9.68089 16.1919 9.73106 16.1 9.8L9.1 15.05ZM8.75 8.75C8.75 9.26918 8.90395 9.77669 9.19239 10.2084C9.48083 10.6401 9.8908 10.9765 10.3705 11.1752C10.8501 11.3739 11.3779 11.4258 11.8871 11.3246C12.3963 11.2233 12.864 10.9733 13.2312 10.6062C13.5983 10.239 13.8483 9.77131 13.9496 9.26211C14.0508 8.75291 13.9989 8.22511 13.8002 7.74546C13.6015 7.2658 13.2651 6.85583 12.8334 6.56739C12.4017 6.27895 11.8942 6.125 11.375 6.125C10.6794 6.12703 10.0129 6.40425 9.52109 6.89609C9.02925 7.38793 8.75203 8.05443 8.75 8.75ZM14.875 16.625C14.7019 16.625 14.5328 16.6763 14.3889 16.7725C14.245 16.8686 14.1328 17.0053 14.0666 17.1652C14.0004 17.325 13.9831 17.501 14.0168 17.6707C14.0506 17.8404 14.1339 17.9963 14.2563 18.1187C14.3787 18.2411 14.5346 18.3244 14.7043 18.3582C14.874 18.3919 15.05 18.3746 15.2098 18.3084C15.3697 18.2422 15.5064 18.13 15.6025 17.9861C15.6987 17.8422 15.75 17.6731 15.75 17.5C15.7493 17.2681 15.6569 17.046 15.493 16.882C15.329 16.7181 15.1069 16.6257 14.875 16.625Z" fill="white"/>
</svg>
