<svg width="48" height="48" viewBox="0 0 48 48" fill="none" xmlns="http://www.w3.org/2000/svg">
<path d="M29.0344 31.0875C28.8469 31.0875 28.6687 31.0594 28.4812 31.0219L23.4187 29.925C23.175 29.8688 23.0156 29.6344 23.0719 29.3813C23.1281 29.1375 23.3625 28.9781 23.6156 29.0344L28.6781 30.1313C29.1187 30.225 29.5594 30.15 29.9437 29.8875C30.3281 29.625 30.5719 29.25 30.6562 28.7906C30.7875 28.0125 30.3656 27.2531 29.6344 26.9719C26.2406 25.6781 17.6344 23.2781 10.9594 28.9875C10.7719 29.1563 10.4812 29.1281 10.3125 28.9406C10.1437 28.7531 10.1719 28.4625 10.3594 28.2938C17.4187 22.2656 26.4188 24.7688 29.9625 26.1188C31.1063 26.5594 31.7719 27.75 31.5562 28.95C31.425 29.6531 31.0406 30.2531 30.4594 30.6375C30.0187 30.9469 29.5312 31.0875 29.0344 31.0875Z" fill="white"/>
<path d="M14.4281 37.1906C14.2406 37.1906 14.0719 37.0781 14.0063 36.9C13.9125 36.6656 14.0344 36.3937 14.2594 36.3093L16.8844 35.2687C18.7406 34.5281 20.8125 34.4437 22.725 35.0437L25.2188 35.8219C27.0188 36.375 28.95 36.2718 30.6656 35.5312L41.9813 30.6375C42.4875 30.4125 42.8813 30.0094 43.0875 29.4844C43.2844 28.9687 43.275 28.3969 43.0406 27.9C42.6188 26.9625 41.5969 26.4844 40.6219 26.7562L31.2 29.3437C30.9563 29.4094 30.7031 29.2594 30.6375 29.025C30.5719 28.7812 30.7219 28.5281 30.9563 28.4625L40.3781 25.8844C41.7938 25.4906 43.2563 26.1844 43.875 27.525C44.2125 28.2562 44.2313 29.0719 43.95 29.8219C43.6594 30.5719 43.0969 31.1625 42.3563 31.4906L31.05 36.3656C29.1281 37.2 26.9625 37.3125 24.9563 36.6937L22.4531 35.9156C20.7469 35.3812 18.8813 35.4562 17.2219 36.1125L14.5875 37.1531C14.5406 37.1812 14.4844 37.1906 14.4281 37.1906Z" fill="white"/>
<path d="M9.56252 41.1657C9.18752 41.1657 8.82189 40.9594 8.63439 40.6032C8.63439 40.6032 8.63439 40.5938 8.62502 40.5938L3.94689 30.5625C3.82502 30.3188 3.81564 30.0563 3.90002 29.7938C3.98439 29.5313 4.18127 29.325 4.42502 29.2032L8.31564 27.4032C9.32814 26.9344 10.5375 27.375 11.0156 28.3875L14.85 36.5625C15.0844 37.05 15.1031 37.6032 14.925 38.1094C14.7375 38.625 14.3625 39.0375 13.8563 39.2625L9.96564 41.0625C9.85314 41.1282 9.71252 41.1657 9.56252 41.1657ZM9.45939 40.1813C9.48752 40.2282 9.54377 40.2563 9.59064 40.2375L13.4813 38.4375C13.7625 38.3063 13.9688 38.0907 14.0719 37.8C14.175 37.5188 14.1563 37.2188 14.0344 36.9563L10.2 28.7813C9.93752 28.2188 9.27189 27.9844 8.71877 28.2375L4.82814 30.0375C4.80002 30.0563 4.78127 30.0844 4.78127 30.0938C4.77189 30.1125 4.77189 30.1313 4.78127 30.1594C4.78127 30.1594 4.78127 30.1688 4.79064 30.1688L9.45939 40.1813Z" fill="white"/>
<path d="M10.9032 37.4156C10.725 37.4156 10.5563 37.3125 10.4813 37.1438L6.73128 28.6406C6.62815 28.4063 6.73128 28.1344 6.96565 28.0313C7.20003 27.9281 7.4719 28.0313 7.57503 28.2656L11.3344 36.7594C11.4375 36.9938 11.3344 37.2656 11.1 37.3688C11.0344 37.3969 10.9688 37.4156 10.9032 37.4156Z" fill="white"/>
<path d="M20.4284 23.1374H22.8378C23.0909 23.1374 23.2972 22.9312 23.2972 22.678V11.7655C23.2972 11.5124 23.0909 11.3062 22.8378 11.3062H20.4284C20.1753 11.3062 19.9691 11.5124 19.9691 11.7655V22.6687C19.9597 22.9312 20.1753 23.1374 20.4284 23.1374ZM22.3784 22.2187H20.8878V12.2343H22.3784V22.2187Z" fill="white"/>
<path d="M35.2972 23.1374H37.7066C37.9597 23.1374 38.166 22.9312 38.166 22.6781V17.9624C38.166 17.7093 37.9597 17.5031 37.7066 17.5031H35.2972C35.0441 17.5031 34.8378 17.7093 34.8378 17.9624V22.6781C34.8285 22.9312 35.0441 23.1374 35.2972 23.1374ZM37.2472 22.2187H35.7566V18.4218H37.2472V22.2187Z" fill="white"/>
<path d="M30.3379 23.1468H32.7472C33.0004 23.1468 33.2066 22.9405 33.2066 22.6874V16.2655C33.2066 16.0124 33.0004 15.8062 32.7472 15.8062H30.3379C30.0847 15.8062 29.8785 16.0124 29.8785 16.2655V22.6874C29.8785 22.9312 30.0847 23.1468 30.3379 23.1468ZM32.2879 22.228H30.7972V16.7249H32.2879V22.228Z" fill="white"/>
<path d="M25.3784 23.1375H27.7878C28.0409 23.1375 28.2472 22.9312 28.2472 22.6781V14.1844C28.2472 13.9312 28.0409 13.725 27.7878 13.725H25.3784C25.1253 13.725 24.9191 13.9312 24.9191 14.1844V22.6687C24.9191 22.9312 25.1253 23.1375 25.3784 23.1375ZM27.3284 22.2187H25.8378V14.6531H27.3284V22.2187Z" fill="white"/>
<path d="M21.619 6.83515C21.4972 6.83515 21.3847 6.88202 21.3003 6.9664C21.1128 7.14452 21.1128 7.43515 21.3003 7.61327L25.9409 12.3101C26.0628 12.432 26.2315 12.4789 26.3909 12.432L31.3409 11.0633L36.1972 15.2258C36.3847 15.3945 36.6753 15.3664 36.844 15.1789C37.0128 14.9914 36.9847 14.7008 36.7972 14.532L31.7628 10.2101C31.6409 10.1164 31.4909 10.0789 31.3409 10.1164L26.4003 11.4851L21.9472 6.97577C21.844 6.88202 21.7315 6.83515 21.619 6.83515Z" fill="white"/>
<path d="M36.4879 12.3476C36.2348 12.3476 36.0285 12.5539 36.0285 12.807V14.4101H34.2191C33.966 14.4101 33.7598 14.6164 33.7598 14.8695C33.7598 15.1226 33.966 15.3289 34.2191 15.3289H36.4973C36.7504 15.3289 36.9566 15.1226 36.9566 14.8695V12.807C36.9379 12.5539 36.741 12.3476 36.4879 12.3476Z" fill="white"/>
</svg>
