<svg width="56" height="56" viewBox="0 0 56 56" fill="none" xmlns="http://www.w3.org/2000/svg">
<g clip-path="url(#clip0_2145_198)">
<path d="M49.6816 32.9519V0H41.3013V30.183C42.8225 31.9394 44.0072 34.0226 44.7278 36.2325H55.9945V32.9519H49.6816Z" fill="white"/>
<path d="M28 27.3737C20.1077 27.3737 13.6868 33.7945 13.6868 41.6868C13.6868 49.5791 20.1077 56 28 56C35.8923 56 42.3132 49.5791 42.3132 41.6868C42.3132 33.7945 35.8923 27.3737 28 27.3737ZM28 40.0465C31.0534 40.0465 33.5374 42.5305 33.5374 45.5839C33.5374 48.0665 31.8954 50.1726 29.6403 50.8734V53.3739H26.3597V50.8734C24.1047 50.1726 22.4625 48.0666 22.4625 45.584H25.7431C25.7431 46.8285 26.7555 47.8409 28 47.8409C29.2444 47.8409 30.2568 46.8285 30.2568 45.584C30.2568 44.3396 29.2444 43.3271 28 43.3271C24.9466 43.3271 22.4625 40.843 22.4625 37.7896C22.4625 35.3071 24.1046 33.201 26.3597 32.5003V29.9998H29.6403V32.5003C31.8953 33.201 33.5374 35.3071 33.5374 37.7896H30.2568C30.2568 36.5452 29.2444 35.5328 28 35.5328C26.7555 35.5328 25.7431 36.5452 25.7431 37.7896C25.7431 39.0341 26.7555 40.0465 28 40.0465Z" fill="white"/>
<path d="M14.6987 30.1829V21.7395H6.31837V32.9519H0.00537109V36.2325H11.2721C11.9929 34.0219 13.1766 31.9404 14.6987 30.1829Z" fill="white"/>
<path d="M38.0207 7.24658H29.6403V24.1703C32.7343 24.4578 35.5982 25.5496 38.0207 27.2343V7.24658Z" fill="white"/>
<path d="M26.3597 14.493H17.9792V27.2342C20.4018 25.5494 23.2656 24.4576 26.3597 24.1702V14.493Z" fill="white"/>
</g>
<defs>
<clipPath id="clip0_2145_198">
<rect width="56" height="56" fill="white"/>
</clipPath>
</defs>
</svg>
