<svg width="56" height="56" viewBox="0 0 56 56" fill="none" xmlns="http://www.w3.org/2000/svg">
<path d="M45.605 38.5C46.3575 38.4475 46.9875 37.94 47.18 37.205L52.43 17.955C52.7625 16.8 51.835 15.715 50.6625 15.75L48.93 15.8375C48.965 16.38 49 16.94 49 17.5C49 27.1425 41.1425 35 31.5 35C21.8575 35 14 27.3175 14 17.4125L13.3 17.4475L12.0575 14.9625C11.7775 14.3675 11.165 14 10.5 14H5.24999C2.93999 14 2.93999 17.5 5.24999 17.5H9.41499L10.605 19.88L15.61 38.185L14.35 40.0575C12.985 42.0875 14.105 45.01 16.7125 45.43C16.1175 46.165 15.75 47.0925 15.75 48.125C15.75 50.54 17.71 52.5 20.125 52.5C22.54 52.5 24.5 50.54 24.5 48.125C24.5 47.145 24.15 46.235 23.6075 45.5H41.1425C40.6 46.235 40.25 47.145 40.25 48.125C40.25 50.54 42.21 52.5 44.625 52.5C47.04 52.5 49 50.54 49 48.125C49 47.145 48.65 46.235 48.1075 45.5H49C51.31 45.5 51.31 42 49 42H17.2725L18.48 40.1975L45.605 38.5ZM44.625 47.25C45.115 47.25 45.5 47.635 45.5 48.125C45.5 48.615 45.115 49 44.625 49C44.135 49 43.75 48.615 43.75 48.125C43.75 47.635 44.135 47.25 44.625 47.25ZM20.125 47.25C20.615 47.25 21 47.635 21 48.125C21 48.615 20.615 49 20.125 49C19.635 49 19.25 48.615 19.25 48.125C19.25 47.635 19.635 47.25 20.125 47.25Z" fill="white"/>
<path d="M31.5 3.5C23.7825 3.5 17.5 9.7825 17.5 17.5C17.5 25.2175 23.7825 31.5 31.5 31.5C39.2175 31.5 45.5 25.2175 45.5 17.5C45.5 9.7825 39.2175 3.5 31.5 3.5ZM37.9925 15.2425L30.9925 22.2425C30.31 22.925 29.2075 22.925 28.525 22.2425L25.025 18.7425C23.38 17.0975 25.865 14.63 27.4925 16.275L29.75 18.5325L35.5075 12.775C37.1525 11.13 39.62 13.615 37.975 15.2425H37.9925Z" fill="white"/>
</svg>
