<svg width="72" height="72" viewBox="0 0 72 72" fill="none" xmlns="http://www.w3.org/2000/svg">
<path d="M32.8773 23.3443C33.1193 27.8746 35.6866 31.7988 39.4045 33.9389L37.0391 38.6336C31.611 35.6179 27.8703 29.9222 27.62 23.3443H32.8773ZM23.1577 38.5744C20.7591 38.5744 19.0254 40.859 19.65 43.1573L14.6765 45.6133C14.0116 44.7507 12.9669 44.191 11.7934 44.191C9.78919 44.191 8.15879 45.8239 8.15879 47.8256C8.15879 49.8273 9.78919 51.4603 11.7934 51.4603C14.1857 51.4603 15.9249 49.1784 15.3014 46.8775L20.2746 44.4149C21.9234 46.5694 25.2499 46.2226 26.4281 43.7894L30.8948 44.9615C30.7713 47.0724 32.4363 48.82 34.5219 48.82C36.5261 48.82 38.1565 47.1936 38.1565 45.1918C38.1565 44.0263 37.6064 42.986 36.7535 42.321L37.6604 40.5234C37.6604 40.5234 37.242 40.3127 36.4054 39.8913L35.4985 41.6889C33.7821 41.2165 32.0119 42.043 31.2515 43.6049L26.7849 42.4329C26.911 40.3314 25.2457 38.5744 23.1577 38.5744ZM8.53608 26.426H15.8116C16.0369 26.426 16.2485 26.3141 16.381 26.1297L18.4014 23.3445H26.2128C26.2128 23.3445 26.2128 22.8748 26.2128 21.9354H18.4014L16.381 19.1502C16.2485 18.9658 16.0369 18.8539 15.8116 18.8539H8.53608C7.96782 18.8539 7.63201 19.5075 7.96683 19.9733L9.89902 22.6401L7.96683 25.3069C7.63201 25.7722 7.96782 26.426 8.53608 26.426ZM45.8859 34.2616C52.2944 34.2616 57.5078 29.0467 57.5078 22.6398C57.5078 16.2331 52.2944 11.0181 45.8859 11.0181C39.7141 11.0181 34.6525 15.8577 34.2876 21.9353H39.5568C39.9081 18.7549 42.6119 16.2726 45.8859 16.2726C49.3979 16.2726 52.2547 19.1302 52.2547 22.6398C52.2547 27.1416 47.7128 30.1462 43.6652 28.6054L41.294 33.3134C42.7036 33.9192 44.2558 34.2616 45.8859 34.2616ZM45.8859 23.3443H40.9743C41.3169 25.7478 43.3884 27.6046 45.8859 27.6046C48.6225 27.6046 50.8486 25.379 50.8486 22.6398C50.8486 19.9006 48.6225 17.675 45.8859 17.675C43.3884 17.675 41.3169 19.5318 40.9743 21.9353H45.8859C46.8117 21.9353 46.8117 23.3443 45.8859 23.3443ZM40.0399 32.6747L42.4111 27.9733C40.8559 26.9526 39.7709 25.2802 39.5568 23.3443H34.2876C34.5265 27.328 36.7798 30.7717 40.0399 32.6747ZM49.1434 46.1138H42.6288C42.2407 46.1138 41.9258 46.4233 41.9258 46.8117V66.9341C41.9258 67.3227 42.2407 67.6387 42.6288 67.6387H49.1434C49.5316 67.6387 49.8465 67.3226 49.8465 66.9341V46.8117C49.8465 46.4233 49.5316 46.1138 49.1434 46.1138ZM15.0507 58.3413H8.53608C8.14796 58.3413 7.8331 58.6572 7.8331 59.0458V66.934C7.8331 67.3226 8.14796 67.6385 8.53608 67.6385H15.0507C15.4391 67.6385 15.7539 67.3224 15.7539 66.934V59.0458C15.7539 58.6574 15.4391 58.3413 15.0507 58.3413ZM45.8859 4.36108C36.0415 4.36108 27.9911 12.1835 27.62 21.9353H32.8773C33.2439 15.0808 38.9382 9.60893 45.8859 9.60893C53.0698 9.60893 58.914 15.456 58.914 22.6398C58.914 29.8235 53.0696 35.6707 45.8859 35.6707C44.0281 35.6707 42.2603 35.2757 40.6598 34.571L38.2933 39.2658C40.6072 40.3259 43.1785 40.9185 45.8859 40.9185C55.9662 40.9185 64.1668 32.7208 64.1668 22.6398C64.1668 12.5588 55.9662 4.36108 45.8859 4.36108ZM37.7793 55.8786H31.2647C30.8765 55.8786 30.5616 56.1948 30.5616 56.5832V66.934C30.5616 67.3226 30.8765 67.6385 31.2647 67.6385H37.7793C38.1675 67.6385 38.4823 67.3224 38.4823 66.934V56.5832C38.4822 56.1948 38.1673 55.8786 37.7793 55.8786ZM26.415 52.481H19.9004C19.512 52.481 19.1973 52.797 19.1973 53.1855V66.934C19.1973 67.3226 19.5121 67.6385 19.9004 67.6385H26.415C26.8031 67.6385 27.1183 67.3224 27.1183 66.934V53.1855C27.1183 52.7971 26.8031 52.481 26.415 52.481Z" fill="#322871"/>
</svg>
