<svg width="48" height="48" viewBox="0 0 48 48" fill="none" xmlns="http://www.w3.org/2000/svg">
<mask id="path-1-inside-1_2144_100" fill="white">
<path fill-rule="evenodd" clip-rule="evenodd" d="M33.6322 45.4431H6.55837C5.46927 45.4431 4.42434 45.0014 3.65425 44.213C2.8892 43.4298 2.45844 42.3682 2.45844 41.2606V7.19412C2.45844 6.08655 2.8892 5.02477 3.65425 4.24163C4.42434 3.45332 5.46927 3.01147 6.55837 3.01147H34.261C35.3501 3.01147 36.3951 3.45332 37.1651 4.24163C37.9302 5.02477 38.361 6.08655 38.361 7.19412V21.5624C40.5547 21.6965 42.4631 22.2118 43.7163 22.9312C44.857 23.5861 45.4775 24.4386 45.5042 25.3113C45.5048 25.3225 45.5052 25.3337 45.5052 25.3449V41.9894C45.5052 42.0006 45.5048 42.0118 45.5042 42.023C45.4775 42.8957 44.857 43.7482 43.7163 44.4031C42.2509 45.2443 39.8893 45.8064 37.2236 45.8064C35.9328 45.8064 34.7132 45.6746 33.6322 45.4431ZM44.2744 29.4592V27.4426C44.105 27.5704 43.9189 27.693 43.7163 27.8093C42.2509 28.6505 39.8893 29.2126 37.2236 29.2126C34.5579 29.2126 32.1964 28.6505 30.731 27.8093C30.5285 27.693 30.3422 27.5704 30.1729 27.4426V29.4592C30.1729 29.6683 30.2699 29.8642 30.4243 30.0523C30.6357 30.3099 30.948 30.5442 31.3356 30.7588C32.6631 31.4939 34.8086 31.9567 37.2236 31.9567C39.6386 31.9567 41.7842 31.4939 43.1117 30.7588C43.4992 30.5442 43.8115 30.3099 44.023 30.0523C44.1773 29.8642 44.2744 29.6683 44.2744 29.4592ZM37.1302 21.5282V7.194C37.1302 6.40938 36.8267 5.65652 36.2848 5.10169C35.7479 4.55215 35.0202 4.24224 34.261 4.24224H6.55837C5.79911 4.24224 5.07148 4.55215 4.53462 5.10169C3.99271 5.65652 3.6892 6.40938 3.6892 7.19412V41.2606C3.6892 42.0452 3.99271 42.7981 4.53462 43.3529C5.07148 43.9026 5.79911 44.2123 6.55837 44.2123H30.4219C29.4784 43.587 28.9672 42.8133 28.943 42.023C28.9425 42.0118 28.9421 42.0006 28.9421 41.9894V25.3449C28.9421 25.3337 28.9425 25.3225 28.943 25.3113C28.9698 24.4386 29.5904 23.5861 30.731 22.9312C32.1793 22.0998 34.5027 21.5411 37.1302 21.5282ZM25.5523 23.1938V25.045C25.5522 26.073 24.7187 26.9066 23.6907 26.9066H19.2379C18.2097 26.9066 17.3762 26.073 17.3762 25.045V23.1938C17.3762 22.1656 18.2097 21.3321 19.2379 21.3321H23.6907C24.7187 21.3321 25.5522 22.1656 25.5523 23.1938ZM24.3216 23.1938C24.3214 22.8453 24.0391 22.5629 23.6907 22.5629H19.2379C18.8894 22.5629 18.607 22.8453 18.607 23.1938V25.045C18.607 25.3934 18.8894 25.6757 19.2379 25.6758H23.6907C24.0391 25.6757 24.3214 25.3934 24.3216 25.045V23.1938ZM14.9078 30.7875V32.6387C14.9078 33.6667 14.0743 34.5003 13.0461 34.5003H8.59333C7.56527 34.5003 6.73179 33.6667 6.73179 32.6387V30.7875C6.73179 29.7593 7.56527 28.9258 8.59333 28.9258H13.0461C14.0743 28.9258 14.9078 29.7593 14.9078 30.7875ZM13.677 30.7875C13.677 30.439 13.3946 30.1566 13.0461 30.1566H8.59333C8.2449 30.1566 7.96256 30.439 7.96256 30.7875V32.6387C7.96256 32.9871 8.2449 33.2696 8.59333 33.2696H13.0461C13.3946 33.2696 13.677 32.9871 13.677 32.6387V30.7875ZM14.9078 38.3812V40.2324C14.9078 41.2606 14.0743 42.0941 13.0461 42.0941H8.59333C7.56527 42.0941 6.73179 41.2606 6.73179 40.2324V38.3812C6.73179 37.353 7.56527 36.5195 8.59333 36.5195H13.0461C14.0743 36.5195 14.9078 37.353 14.9078 38.3812ZM13.677 38.3812C13.677 38.0328 13.3946 37.7503 13.0461 37.7503H8.59333C8.2449 37.7503 7.96256 38.0328 7.96256 38.3812V40.2324C7.96256 40.5808 8.2449 40.8633 8.59333 40.8633H13.0461C13.3946 40.8633 13.677 40.5808 13.677 40.2324V38.3812ZM14.9078 23.1938V25.045C14.9078 26.073 14.0743 26.9066 13.0461 26.9066H8.59333C7.56527 26.9066 6.73179 26.073 6.73179 25.045V23.1938C6.73179 22.1656 7.56527 21.3321 8.59333 21.3321H13.0461C14.0743 21.3321 14.9078 22.1656 14.9078 23.1938ZM13.677 23.1938C13.677 22.8453 13.3946 22.5629 13.0461 22.5629H8.59333C8.2449 22.5629 7.96256 22.8453 7.96256 23.1938V25.045C7.96256 25.3934 8.2449 25.6757 8.59333 25.6758H13.0461C13.3946 25.6757 13.677 25.3934 13.677 25.045V23.1938ZM34.6507 8.83547V17.0068C34.6507 17.3466 34.3751 17.6222 34.0353 17.6222H6.7841C6.44428 17.6222 6.16871 17.3466 6.16871 17.0068V8.83547C6.16871 8.49566 6.44428 8.22009 6.7841 8.22009H34.0353C34.3751 8.22009 34.6507 8.49566 34.6507 8.83547ZM33.4199 9.45086H7.39948V16.3914H33.4199V9.45086ZM25.5523 38.3812V40.2324C25.5522 41.2606 24.7187 42.0941 23.6907 42.0941H19.2379C18.2097 42.0941 17.3762 41.2606 17.3762 40.2324V38.3812C17.3762 37.353 18.2097 36.5195 19.2379 36.5195H23.6907C24.7187 36.5195 25.5522 37.353 25.5523 38.3812ZM24.3216 38.3812C24.3214 38.0328 24.0391 37.7503 23.6907 37.7503H19.2379C18.8894 37.7503 18.607 38.0328 18.607 38.3812V40.2324C18.607 40.5808 18.8894 40.8633 19.2379 40.8633H23.6907C24.0391 40.8633 24.3214 40.5808 24.3216 40.2324V38.3812ZM25.5523 30.7875V32.6387C25.5522 33.6667 24.7187 34.5003 23.6907 34.5003H19.2379C18.2097 34.5003 17.3762 33.6667 17.3762 32.6387V30.7875C17.3762 29.7593 18.2097 28.9258 19.2379 28.9258H23.6907C24.7187 28.9258 25.5522 29.7593 25.5523 30.7875ZM24.3216 30.7875C24.3214 30.439 24.0391 30.1566 23.6907 30.1566H19.2379C18.8894 30.1566 18.607 30.439 18.607 30.7875V32.6387C18.607 32.9871 18.8894 33.2696 19.2379 33.2696H23.6907C24.0391 33.2696 24.3214 32.9871 24.3216 32.6387V30.7875ZM44.2744 25.3702C44.2744 24.8377 43.7989 24.3978 43.1035 23.9987C41.7778 23.2376 39.6352 22.7587 37.2236 22.7587C34.8122 22.7587 32.6695 23.2376 31.3438 23.9987C30.6485 24.3978 30.1729 24.8377 30.1729 25.3702C30.1729 25.9028 30.6485 26.3426 31.3438 26.7418C32.6695 27.5029 34.8122 27.9818 37.2236 27.9818C39.6352 27.9818 41.7778 27.5029 43.1035 26.7418C43.7989 26.3426 44.2744 25.9028 44.2744 25.3702ZM44.2744 38.1796V35.8355C44.1027 35.9613 43.9138 36.0816 43.7079 36.1957C42.2445 37.0061 39.8859 37.5476 37.2236 37.5476C34.5614 37.5476 32.2028 37.0061 30.7393 36.1957C30.5334 36.0816 30.3445 35.9613 30.1729 35.8355V38.1796C30.1729 38.3887 30.2699 38.5845 30.4243 38.7727C30.6357 39.0303 30.948 39.2645 31.3356 39.4792C32.6631 40.2143 34.8086 40.6771 37.2236 40.6771C39.6386 40.6771 41.7842 40.2143 43.1117 39.4792C43.4992 39.2645 43.8115 39.0303 44.023 38.7727C44.1773 38.5845 44.2744 38.3887 44.2744 38.1796ZM44.2744 41.9641V40.1957C44.1027 40.3214 43.9138 40.4419 43.7079 40.5558C42.2445 41.3663 39.8859 41.9078 37.2236 41.9078C34.5614 41.9078 32.2028 41.3663 30.7393 40.5558C30.5334 40.4419 30.3445 40.3214 30.1729 40.1957V41.9641C30.1729 42.4966 30.6485 42.9364 31.3438 43.3357C31.9789 43.7003 32.8016 44.0002 33.7515 44.2137C33.8142 44.2176 33.8744 44.231 33.9307 44.2526C34.9202 44.4602 36.0395 44.5757 37.2236 44.5757C39.6352 44.5757 41.7778 44.0968 43.1035 43.3357C43.7989 42.9364 44.2744 42.4966 44.2744 41.9641ZM44.2744 33.8194V31.4754C44.1027 31.601 43.9138 31.7215 43.7079 31.8355C42.2445 32.6459 39.8859 33.1875 37.2236 33.1875C34.5614 33.1875 32.2028 32.6459 30.7393 31.8355C30.5334 31.7215 30.3445 31.601 30.1729 31.4754V33.8194C30.1729 34.0286 30.2699 34.2243 30.4243 34.4125C30.6357 34.6701 30.948 34.9044 31.3356 35.1189C32.6631 35.8542 34.8086 36.3168 37.2236 36.3168C39.6386 36.3168 41.7842 35.8542 43.1117 35.1189C43.4992 34.9044 43.8115 34.6701 44.023 34.4125C44.1773 34.2243 44.2744 34.0286 44.2744 33.8194Z"/>
</mask>
<path fill-rule="evenodd" clip-rule="evenodd" d="M33.6322 45.4431H6.55837C5.46927 45.4431 4.42434 45.0014 3.65425 44.213C2.8892 43.4298 2.45844 42.3682 2.45844 41.2606V7.19412C2.45844 6.08655 2.8892 5.02477 3.65425 4.24163C4.42434 3.45332 5.46927 3.01147 6.55837 3.01147H34.261C35.3501 3.01147 36.3951 3.45332 37.1651 4.24163C37.9302 5.02477 38.361 6.08655 38.361 7.19412V21.5624C40.5547 21.6965 42.4631 22.2118 43.7163 22.9312C44.857 23.5861 45.4775 24.4386 45.5042 25.3113C45.5048 25.3225 45.5052 25.3337 45.5052 25.3449V41.9894C45.5052 42.0006 45.5048 42.0118 45.5042 42.023C45.4775 42.8957 44.857 43.7482 43.7163 44.4031C42.2509 45.2443 39.8893 45.8064 37.2236 45.8064C35.9328 45.8064 34.7132 45.6746 33.6322 45.4431ZM44.2744 29.4592V27.4426C44.105 27.5704 43.9189 27.693 43.7163 27.8093C42.2509 28.6505 39.8893 29.2126 37.2236 29.2126C34.5579 29.2126 32.1964 28.6505 30.731 27.8093C30.5285 27.693 30.3422 27.5704 30.1729 27.4426V29.4592C30.1729 29.6683 30.2699 29.8642 30.4243 30.0523C30.6357 30.3099 30.948 30.5442 31.3356 30.7588C32.6631 31.4939 34.8086 31.9567 37.2236 31.9567C39.6386 31.9567 41.7842 31.4939 43.1117 30.7588C43.4992 30.5442 43.8115 30.3099 44.023 30.0523C44.1773 29.8642 44.2744 29.6683 44.2744 29.4592ZM37.1302 21.5282V7.194C37.1302 6.40938 36.8267 5.65652 36.2848 5.10169C35.7479 4.55215 35.0202 4.24224 34.261 4.24224H6.55837C5.79911 4.24224 5.07148 4.55215 4.53462 5.10169C3.99271 5.65652 3.6892 6.40938 3.6892 7.19412V41.2606C3.6892 42.0452 3.99271 42.7981 4.53462 43.3529C5.07148 43.9026 5.79911 44.2123 6.55837 44.2123H30.4219C29.4784 43.587 28.9672 42.8133 28.943 42.023C28.9425 42.0118 28.9421 42.0006 28.9421 41.9894V25.3449C28.9421 25.3337 28.9425 25.3225 28.943 25.3113C28.9698 24.4386 29.5904 23.5861 30.731 22.9312C32.1793 22.0998 34.5027 21.5411 37.1302 21.5282ZM25.5523 23.1938V25.045C25.5522 26.073 24.7187 26.9066 23.6907 26.9066H19.2379C18.2097 26.9066 17.3762 26.073 17.3762 25.045V23.1938C17.3762 22.1656 18.2097 21.3321 19.2379 21.3321H23.6907C24.7187 21.3321 25.5522 22.1656 25.5523 23.1938ZM24.3216 23.1938C24.3214 22.8453 24.0391 22.5629 23.6907 22.5629H19.2379C18.8894 22.5629 18.607 22.8453 18.607 23.1938V25.045C18.607 25.3934 18.8894 25.6757 19.2379 25.6758H23.6907C24.0391 25.6757 24.3214 25.3934 24.3216 25.045V23.1938ZM14.9078 30.7875V32.6387C14.9078 33.6667 14.0743 34.5003 13.0461 34.5003H8.59333C7.56527 34.5003 6.73179 33.6667 6.73179 32.6387V30.7875C6.73179 29.7593 7.56527 28.9258 8.59333 28.9258H13.0461C14.0743 28.9258 14.9078 29.7593 14.9078 30.7875ZM13.677 30.7875C13.677 30.439 13.3946 30.1566 13.0461 30.1566H8.59333C8.2449 30.1566 7.96256 30.439 7.96256 30.7875V32.6387C7.96256 32.9871 8.2449 33.2696 8.59333 33.2696H13.0461C13.3946 33.2696 13.677 32.9871 13.677 32.6387V30.7875ZM14.9078 38.3812V40.2324C14.9078 41.2606 14.0743 42.0941 13.0461 42.0941H8.59333C7.56527 42.0941 6.73179 41.2606 6.73179 40.2324V38.3812C6.73179 37.353 7.56527 36.5195 8.59333 36.5195H13.0461C14.0743 36.5195 14.9078 37.353 14.9078 38.3812ZM13.677 38.3812C13.677 38.0328 13.3946 37.7503 13.0461 37.7503H8.59333C8.2449 37.7503 7.96256 38.0328 7.96256 38.3812V40.2324C7.96256 40.5808 8.2449 40.8633 8.59333 40.8633H13.0461C13.3946 40.8633 13.677 40.5808 13.677 40.2324V38.3812ZM14.9078 23.1938V25.045C14.9078 26.073 14.0743 26.9066 13.0461 26.9066H8.59333C7.56527 26.9066 6.73179 26.073 6.73179 25.045V23.1938C6.73179 22.1656 7.56527 21.3321 8.59333 21.3321H13.0461C14.0743 21.3321 14.9078 22.1656 14.9078 23.1938ZM13.677 23.1938C13.677 22.8453 13.3946 22.5629 13.0461 22.5629H8.59333C8.2449 22.5629 7.96256 22.8453 7.96256 23.1938V25.045C7.96256 25.3934 8.2449 25.6757 8.59333 25.6758H13.0461C13.3946 25.6757 13.677 25.3934 13.677 25.045V23.1938ZM34.6507 8.83547V17.0068C34.6507 17.3466 34.3751 17.6222 34.0353 17.6222H6.7841C6.44428 17.6222 6.16871 17.3466 6.16871 17.0068V8.83547C6.16871 8.49566 6.44428 8.22009 6.7841 8.22009H34.0353C34.3751 8.22009 34.6507 8.49566 34.6507 8.83547ZM33.4199 9.45086H7.39948V16.3914H33.4199V9.45086ZM25.5523 38.3812V40.2324C25.5522 41.2606 24.7187 42.0941 23.6907 42.0941H19.2379C18.2097 42.0941 17.3762 41.2606 17.3762 40.2324V38.3812C17.3762 37.353 18.2097 36.5195 19.2379 36.5195H23.6907C24.7187 36.5195 25.5522 37.353 25.5523 38.3812ZM24.3216 38.3812C24.3214 38.0328 24.0391 37.7503 23.6907 37.7503H19.2379C18.8894 37.7503 18.607 38.0328 18.607 38.3812V40.2324C18.607 40.5808 18.8894 40.8633 19.2379 40.8633H23.6907C24.0391 40.8633 24.3214 40.5808 24.3216 40.2324V38.3812ZM25.5523 30.7875V32.6387C25.5522 33.6667 24.7187 34.5003 23.6907 34.5003H19.2379C18.2097 34.5003 17.3762 33.6667 17.3762 32.6387V30.7875C17.3762 29.7593 18.2097 28.9258 19.2379 28.9258H23.6907C24.7187 28.9258 25.5522 29.7593 25.5523 30.7875ZM24.3216 30.7875C24.3214 30.439 24.0391 30.1566 23.6907 30.1566H19.2379C18.8894 30.1566 18.607 30.439 18.607 30.7875V32.6387C18.607 32.9871 18.8894 33.2696 19.2379 33.2696H23.6907C24.0391 33.2696 24.3214 32.9871 24.3216 32.6387V30.7875ZM44.2744 25.3702C44.2744 24.8377 43.7989 24.3978 43.1035 23.9987C41.7778 23.2376 39.6352 22.7587 37.2236 22.7587C34.8122 22.7587 32.6695 23.2376 31.3438 23.9987C30.6485 24.3978 30.1729 24.8377 30.1729 25.3702C30.1729 25.9028 30.6485 26.3426 31.3438 26.7418C32.6695 27.5029 34.8122 27.9818 37.2236 27.9818C39.6352 27.9818 41.7778 27.5029 43.1035 26.7418C43.7989 26.3426 44.2744 25.9028 44.2744 25.3702ZM44.2744 38.1796V35.8355C44.1027 35.9613 43.9138 36.0816 43.7079 36.1957C42.2445 37.0061 39.8859 37.5476 37.2236 37.5476C34.5614 37.5476 32.2028 37.0061 30.7393 36.1957C30.5334 36.0816 30.3445 35.9613 30.1729 35.8355V38.1796C30.1729 38.3887 30.2699 38.5845 30.4243 38.7727C30.6357 39.0303 30.948 39.2645 31.3356 39.4792C32.6631 40.2143 34.8086 40.6771 37.2236 40.6771C39.6386 40.6771 41.7842 40.2143 43.1117 39.4792C43.4992 39.2645 43.8115 39.0303 44.023 38.7727C44.1773 38.5845 44.2744 38.3887 44.2744 38.1796ZM44.2744 41.9641V40.1957C44.1027 40.3214 43.9138 40.4419 43.7079 40.5558C42.2445 41.3663 39.8859 41.9078 37.2236 41.9078C34.5614 41.9078 32.2028 41.3663 30.7393 40.5558C30.5334 40.4419 30.3445 40.3214 30.1729 40.1957V41.9641C30.1729 42.4966 30.6485 42.9364 31.3438 43.3357C31.9789 43.7003 32.8016 44.0002 33.7515 44.2137C33.8142 44.2176 33.8744 44.231 33.9307 44.2526C34.9202 44.4602 36.0395 44.5757 37.2236 44.5757C39.6352 44.5757 41.7778 44.0968 43.1035 43.3357C43.7989 42.9364 44.2744 42.4966 44.2744 41.9641ZM44.2744 33.8194V31.4754C44.1027 31.601 43.9138 31.7215 43.7079 31.8355C42.2445 32.6459 39.8859 33.1875 37.2236 33.1875C34.5614 33.1875 32.2028 32.6459 30.7393 31.8355C30.5334 31.7215 30.3445 31.601 30.1729 31.4754V33.8194C30.1729 34.0286 30.2699 34.2243 30.4243 34.4125C30.6357 34.6701 30.948 34.9044 31.3356 35.1189C32.6631 35.8542 34.8086 36.3168 37.2236 36.3168C39.6386 36.3168 41.7842 35.8542 43.1117 35.1189C43.4992 34.9044 43.8115 34.6701 44.023 34.4125C44.1773 34.2243 44.2744 34.0286 44.2744 33.8194Z" stroke="white" mask="url(#path-1-inside-1_2144_100)"/>
</svg>
