<svg width="72" height="72" viewBox="0 0 72 72" fill="none" xmlns="http://www.w3.org/2000/svg">
<path d="M64.125 31.5C63.1299 31.5032 62.1639 31.8362 61.3781 32.4469C60.5924 33.0575 60.0313 33.9114 59.7825 34.875H51.75V33.75H49.2975C48.9752 31.7483 48.2061 29.845 47.0475 28.1812L48.78 26.4487L47.9925 25.6612L52.8412 20.8012C54.0039 21.5707 55.4109 21.881 56.7894 21.6719C58.1679 21.4627 59.4196 20.7491 60.3017 19.6694C61.1839 18.5897 61.6336 17.2208 61.5636 15.8283C61.4937 14.4358 60.9091 13.1189 59.9232 12.133C58.9373 11.1471 57.6204 10.5625 56.2279 10.4926C54.8354 10.4226 53.4665 10.8723 52.3868 11.7545C51.3071 12.6366 50.5935 13.8883 50.3843 15.2668C50.1752 16.6453 50.4855 18.0523 51.255 19.215L46.395 24.0637L45.6075 23.2762L43.875 25.0087C42.1997 23.8223 40.2759 23.0335 38.25 22.7025V20.25H37.125V12.2175C38.1855 11.9436 39.1097 11.2925 39.7244 10.386C40.3391 9.47945 40.6021 8.37987 40.4641 7.29333C40.3261 6.20679 39.7966 5.20788 38.9748 4.48385C38.1529 3.75981 37.0953 3.36035 36 3.36035C34.9047 3.36035 33.847 3.75981 33.0252 4.48385C32.2034 5.20788 31.6739 6.20679 31.5359 7.29333C31.3978 8.37987 31.6608 9.47945 32.2756 10.386C32.8903 11.2925 33.8145 11.9436 34.875 12.2175V20.25H33.75V22.7025C31.7437 23.0417 29.84 23.8301 28.1812 25.0087L26.4487 23.2762L25.6612 24.0637L20.8012 19.215C21.5707 18.0523 21.881 16.6453 21.6719 15.2668C21.4627 13.8883 20.7491 12.6366 19.6694 11.7545C18.5897 10.8723 17.2208 10.4226 15.8283 10.4926C14.4358 10.5625 13.1189 11.1471 12.133 12.133C11.1472 13.1189 10.5625 14.4358 10.4926 15.8283C10.4227 17.2208 10.8724 18.5897 11.7545 19.6694C12.6366 20.7491 13.8883 21.4627 15.2668 21.6719C16.6453 21.881 18.0523 21.5707 19.215 20.8012L24.0637 25.6612L23.2762 26.4487L25.0087 28.1812C23.8301 29.8399 23.0417 31.7436 22.7025 33.75H20.25V34.875H12.2175C11.9437 33.8145 11.2925 32.8902 10.386 32.2755C9.47948 31.6608 8.3799 31.3978 7.29336 31.5358C6.20682 31.6738 5.20791 32.2034 4.48388 33.0252C3.75984 33.847 3.36038 34.9047 3.36038 36C3.36038 37.0952 3.75984 38.1529 4.48388 38.9747C5.20791 39.7965 6.20682 40.3261 7.29336 40.4641C8.3799 40.6021 9.47948 40.3391 10.386 39.7244C11.2925 39.1097 11.9437 38.1855 12.2175 37.125H20.25V38.25H22.7025C23.0336 40.2759 23.8223 42.1997 25.0087 43.875L23.2762 45.6075L24.0637 46.395L19.215 51.255C18.0523 50.4855 16.6453 50.1752 15.2668 50.3843C13.8883 50.5935 12.6366 51.3071 11.7545 52.3868C10.8724 53.4665 10.4227 54.8354 10.4926 56.2279C10.5625 57.6204 11.1472 58.9373 12.133 59.9232C13.1189 60.909 14.4358 61.4937 15.8283 61.5636C17.2208 61.6336 18.5897 61.1838 19.6694 60.3017C20.7491 59.4196 21.4627 58.1679 21.6719 56.7894C21.881 55.4109 21.5707 54.0039 20.8012 52.8412L25.6612 47.9925L26.4487 48.78L28.1812 47.0475C29.845 48.2061 31.7483 48.9751 33.75 49.2975V51.75H34.875V59.7825C33.8145 60.0563 32.8903 60.7075 32.2756 61.614C31.6608 62.5205 31.3978 63.62 31.5359 64.7066C31.6739 65.7931 32.2034 66.792 33.0252 67.5161C33.847 68.2401 34.9047 68.6396 36 68.6396C37.0953 68.6396 38.1529 68.2401 38.9748 67.5161C39.7966 66.792 40.3261 65.7931 40.4641 64.7066C40.6021 63.62 40.3391 62.5205 39.7244 61.614C39.1097 60.7075 38.1855 60.0563 37.125 59.7825V51.75H38.25V49.2975C40.2712 48.9833 42.1947 48.2139 43.875 47.0475L45.6075 48.78L46.395 47.9925L51.255 52.8412C50.4855 54.0039 50.1752 55.4109 50.3843 56.7894C50.5935 58.1679 51.3071 59.4196 52.3868 60.3017C53.4665 61.1838 54.8354 61.6336 56.2279 61.5636C57.6204 61.4937 58.9373 60.909 59.9232 59.9232C60.9091 58.9373 61.4937 57.6204 61.5636 56.2279C61.6336 54.8354 61.1839 53.4665 60.3017 52.3868C59.4196 51.3071 58.1679 50.5935 56.7894 50.3843C55.4109 50.1752 54.0039 50.4855 52.8412 51.255L47.9925 46.395L48.78 45.6075L46.9912 43.875C48.1577 42.1946 48.9271 40.2712 49.2412 38.25H51.75V37.125H59.7825C59.9931 37.9405 60.4283 38.6805 61.0387 39.2609C61.649 39.8414 62.41 40.2388 63.2351 40.4081C64.0602 40.5774 64.9162 40.5117 65.7058 40.2186C66.4954 39.9254 67.1869 39.4165 67.7016 38.7498C68.2163 38.0831 68.5336 37.2853 68.6173 36.4472C68.701 35.6091 68.5478 34.7644 68.1752 34.009C67.8026 33.2537 67.2254 32.6181 66.5094 32.1745C65.7934 31.7309 64.9673 31.4972 64.125 31.5ZM53.505 13.725C53.814 13.3934 54.1866 13.1274 54.6006 12.9429C55.0146 12.7585 55.4615 12.6593 55.9146 12.6513C56.3678 12.6433 56.8179 12.7267 57.2382 12.8964C57.6584 13.0662 58.0402 13.3188 58.3607 13.6393C58.6811 13.9598 58.9338 14.3415 59.1035 14.7618C59.2733 15.182 59.3566 15.6321 59.3486 16.0853C59.3407 16.5385 59.2415 16.9854 59.057 17.3994C58.8725 17.8134 58.6066 18.186 58.275 18.495C57.6338 19.111 56.7791 19.455 55.89 19.455C55.0008 19.455 54.1462 19.111 53.505 18.495C52.873 17.8621 52.518 17.0043 52.518 16.11C52.518 15.2156 52.873 14.3578 53.505 13.725ZM18.495 18.495C17.8538 19.111 16.9991 19.455 16.11 19.455C15.2208 19.455 14.3662 19.111 13.725 18.495C13.2526 18.0231 12.9307 17.4218 12.8001 16.767C12.6696 16.1122 12.7362 15.4333 12.9915 14.8164C13.2468 14.1995 13.6794 13.6721 14.2345 13.3011C14.7896 12.93 15.4423 12.732 16.11 12.732C16.7777 12.732 17.4304 12.93 17.9855 13.3011C18.5406 13.6721 18.9732 14.1995 19.2285 14.8164C19.4838 15.4333 19.5504 16.1122 19.4198 16.767C19.2893 17.4218 18.9674 18.0231 18.495 18.495ZM18.495 58.275C17.8512 58.8858 16.9975 59.2264 16.11 59.2264C15.2225 59.2264 14.3688 58.8858 13.725 58.275C13.2526 57.8031 12.9307 57.2018 12.8001 56.547C12.6696 55.8922 12.7362 55.2133 12.9915 54.5964C13.2468 53.9795 13.6794 53.4521 14.2345 53.0811C14.7896 52.71 15.4423 52.512 16.11 52.512C16.7777 52.512 17.4304 52.71 17.9855 53.0811C18.5406 53.4521 18.9732 53.9795 19.2285 54.5964C19.4838 55.2133 19.5504 55.8922 19.4198 56.547C19.2893 57.2018 18.9674 57.8031 18.495 58.275ZM36 45C34.22 45 32.4799 44.4721 30.9999 43.4832C29.5198 42.4943 28.3663 41.0886 27.6851 39.4441C27.0039 37.7996 26.8257 35.99 27.1729 34.2441C27.5202 32.4983 28.3774 30.8947 29.636 29.636C30.8947 28.3773 32.4983 27.5202 34.2442 27.1729C35.99 26.8256 37.7996 27.0039 39.4441 27.685C41.0887 28.3662 42.4943 29.5198 43.4832 30.9998C44.4721 32.4799 45 34.2199 45 36C45 38.3869 44.0518 40.6761 42.3639 42.3639C40.6761 44.0518 38.3869 45 36 45ZM53.505 53.505C53.814 53.1734 54.1866 52.9074 54.6006 52.7229C55.0146 52.5385 55.4615 52.4393 55.9146 52.4313C56.3678 52.4233 56.8179 52.5067 57.2382 52.6764C57.6584 52.8462 58.0402 53.0988 58.3607 53.4193C58.6811 53.7398 58.9338 54.1215 59.1035 54.5418C59.2733 54.962 59.3566 55.4122 59.3486 55.8653C59.3407 56.3185 59.2415 56.7654 59.057 57.1794C58.8725 57.5934 58.6066 57.966 58.275 58.275C57.6312 58.8858 56.7775 59.2264 55.89 59.2264C55.0025 59.2264 54.1488 58.8858 53.505 58.275C52.873 57.6421 52.518 56.7843 52.518 55.89C52.518 54.9956 52.873 54.1378 53.505 53.505Z" fill="#322871"/>
</svg>
