<svg width="56" height="56" viewBox="0 0 56 56" fill="none" xmlns="http://www.w3.org/2000/svg">
<g clip-path="url(#clip0_2145_170)">
<path d="M41.1249 19.7974C32.9828 19.7974 26.3594 26.4207 26.3594 34.5628C26.3594 42.7049 32.9827 49.3282 41.1248 49.3282C49.2669 49.3282 55.9996 42.7049 55.9996 34.5628C55.9996 26.4207 49.267 19.7974 41.1249 19.7974ZM42.8086 42.4694C42.7944 42.4746 42.7795 42.4722 42.7653 42.4771V44.4064C42.7653 45.3132 42.0315 46.047 41.1247 46.047C40.2178 46.047 39.484 45.3132 39.484 44.4064V42.466C38.4035 42.1009 37.3682 41.4081 36.4831 40.353C35.8999 39.6592 35.9896 38.6242 36.685 38.0426C37.3788 37.4595 38.417 37.5491 38.9954 38.2446C39.8637 39.2779 40.8459 39.6881 41.6854 39.3869C42.3311 39.1514 42.7653 38.5313 42.7653 37.844C42.7653 36.9388 42.0299 36.2034 41.1247 36.2034C38.4106 36.2034 36.2029 33.9956 36.2029 31.2816C36.2029 29.2998 37.3821 27.5197 39.207 26.7476C39.2973 26.7093 39.393 26.7115 39.4842 26.6789V24.7192C39.4842 23.8124 40.218 23.0786 41.1248 23.0786C42.0316 23.0786 42.7654 23.8124 42.7654 24.7192V26.6819C43.6149 26.9689 44.4433 27.4251 45.183 28.1415C45.8335 28.7711 45.8496 29.8093 45.2183 30.4614C44.5886 31.1119 43.5488 31.1263 42.8983 30.4966C42.1004 29.7228 41.2176 29.4568 40.487 29.7693C39.8782 30.0272 39.484 30.62 39.484 31.2817C39.484 32.1869 40.2195 32.9224 41.1247 32.9224C43.8387 32.9224 46.0464 35.1302 46.0464 37.8441C46.0467 39.906 44.7456 41.7645 42.8086 42.4694Z" fill="#F6F6F6"/>
<path d="M1.64105 36.2035C0.734224 36.2035 0.000427246 36.9373 0.000427246 37.8441V54.3595C0.000427246 55.2664 0.734224 56.0001 1.64105 56.0001H6.56282V36.2035H1.64105Z" fill="#F6F6F6"/>
<path d="M38.9107 10.2402L27.4264 0.396539C26.8144 -0.13218 25.9044 -0.13218 25.2923 0.396539L13.8082 10.2402C13.2859 10.6856 13.0984 11.4097 13.3371 12.0538C13.5742 12.6979 14.1878 13.1257 14.8752 13.1257H19.797C19.797 27.3094 19.797 41.8156 19.797 56.0002C24.0235 56.0002 26.9454 56.0002 31.2813 56.0002C32.1881 56.0002 32.9219 55.2664 32.9219 54.3595V50.6174C27.0876 47.6239 23.0782 41.5591 23.0782 34.563C23.0782 27.567 27.0877 21.5021 32.9219 18.5086V13.1258H37.8437C38.531 13.1258 39.1447 12.6981 39.3818 12.0539C39.6206 11.4097 39.4331 10.6856 38.9107 10.2402Z" fill="#F6F6F6"/>
<path d="M11.594 23.0786C10.6872 23.0786 9.95337 23.8124 9.95337 24.7192V36.2035V55.9999C12.3498 55.9999 14.189 55.9999 16.5158 55.9999V23.0786H11.594Z" fill="#F6F6F6"/>
</g>
<defs>
<clipPath id="clip0_2145_170">
<rect width="56" height="56" fill="white"/>
</clipPath>
</defs>
</svg>
