<svg width="72" height="72" viewBox="0 0 72 72" fill="none" xmlns="http://www.w3.org/2000/svg">
<path d="M32.625 49.5H6.75C5.5125 49.5 4.5 48.4875 4.5 47.25V9C4.5 7.7625 5.5125 6.75 6.75 6.75H61.875C63.1125 6.75 64.125 7.7625 64.125 9V34.875C64.125 35.4937 64.6312 36 65.25 36C65.8688 36 66.375 35.4937 66.375 34.875V9C66.375 6.51375 64.3613 4.5 61.875 4.5H6.75C4.26375 4.5 2.25 6.51375 2.25 9V47.25C2.25 49.7363 4.26375 51.75 6.75 51.75H32.625C33.2437 51.75 33.75 51.2438 33.75 50.625C33.75 50.0062 33.2437 49.5 32.625 49.5Z" fill="#322871"/>
<path d="M54 33.75V42.8062C57.5438 43.3012 60.3338 46.17 60.7163 49.77H69.75C69.3337 41.2088 62.5275 34.3012 54 33.75Z" fill="#322871"/>
<path d="M59.0513 55.5075L65.43 61.8975C66.735 60.4575 67.7588 58.8263 68.49 57.0713C69.1425 55.4738 69.5588 53.775 69.705 52.02H60.6263C60.39 53.2913 59.85 54.4838 59.04 55.4963L59.0513 55.5075Z" fill="#322871"/>
<path d="M52.8862 58.4888C48.5437 58.4888 45.0112 54.9562 45.0112 50.6025C45.0112 46.6425 47.9475 43.3462 51.75 42.8062V33.75C42.9637 34.335 36 41.67 36 50.6025C36 59.535 43.5712 67.5 52.8862 67.5C56.9362 67.5 60.7613 66.0825 63.8325 63.4613L57.4312 57.0487C56.115 57.9825 54.54 58.4888 52.8975 58.4888H52.8862Z" fill="#322871"/>
<path d="M37.125 22.5C37.125 21.9038 36.9562 21.3413 36.675 20.8575L40.3762 16.6275C40.7587 16.785 41.175 16.875 41.6138 16.875C42.0525 16.875 42.4688 16.785 42.8512 16.6275L46.5525 20.8575C46.2825 21.3413 46.1025 21.9038 46.1025 22.5C46.1025 24.3562 47.6213 25.875 49.4775 25.875C51.3337 25.875 52.8525 24.3562 52.8525 22.5C52.8525 21.9038 52.6838 21.3413 52.4025 20.8575L56.1037 16.6275C56.4862 16.785 56.9025 16.875 57.3413 16.875C59.1975 16.875 60.7163 15.3562 60.7163 13.5C60.7163 11.6438 59.1975 10.125 57.3413 10.125C55.485 10.125 53.9663 11.6438 53.9663 13.5C53.9663 14.0963 54.135 14.6588 54.4162 15.1425L50.715 19.3725C50.3325 19.215 49.9163 19.125 49.4775 19.125C49.0387 19.125 48.6225 19.215 48.24 19.3725L44.5387 15.1425C44.8088 14.6588 44.9888 14.0963 44.9888 13.5C44.9888 11.6438 43.47 10.125 41.6138 10.125C39.7575 10.125 38.2388 11.6438 38.2388 13.5C38.2388 14.0963 38.4075 14.6588 38.6887 15.1425L34.9875 19.3725C34.605 19.215 34.1888 19.125 33.75 19.125C31.8938 19.125 30.375 20.6438 30.375 22.5C30.375 24.3562 31.8938 25.875 33.75 25.875C35.6062 25.875 37.125 24.3562 37.125 22.5Z" fill="#322871"/>
<path d="M13.5 31.5H9C8.37868 31.5 7.875 32.0037 7.875 32.625V45C7.875 45.6213 8.37868 46.125 9 46.125H13.5C14.1213 46.125 14.625 45.6213 14.625 45V32.625C14.625 32.0037 14.1213 31.5 13.5 31.5Z" fill="#322871"/>
<path d="M22.5 27H18C17.3787 27 16.875 27.5037 16.875 28.125V45C16.875 45.6213 17.3787 46.125 18 46.125H22.5C23.1213 46.125 23.625 45.6213 23.625 45V28.125C23.625 27.5037 23.1213 27 22.5 27Z" fill="#322871"/>
<path d="M31.5 34.875H27C26.3787 34.875 25.875 35.3787 25.875 36V45C25.875 45.6213 26.3787 46.125 27 46.125H31.5C32.1213 46.125 32.625 45.6213 32.625 45V36C32.625 35.3787 32.1213 34.875 31.5 34.875Z" fill="#322871"/>
<path d="M9 12.375H11.25C11.8688 12.375 12.375 11.8687 12.375 11.25C12.375 10.6312 11.8688 10.125 11.25 10.125H9C8.38125 10.125 7.875 10.6312 7.875 11.25C7.875 11.8687 8.38125 12.375 9 12.375Z" fill="#322871"/>
<path d="M15.75 12.375H24.75C25.3687 12.375 25.875 11.8687 25.875 11.25C25.875 10.6312 25.3687 10.125 24.75 10.125H15.75C15.1312 10.125 14.625 10.6312 14.625 11.25C14.625 11.8687 15.1312 12.375 15.75 12.375Z" fill="#322871"/>
<path d="M9 18H11.25C11.8688 18 12.375 17.4937 12.375 16.875C12.375 16.2562 11.8688 15.75 11.25 15.75H9C8.38125 15.75 7.875 16.2562 7.875 16.875C7.875 17.4937 8.38125 18 9 18Z" fill="#322871"/>
<path d="M15.75 18H24.75C25.3687 18 25.875 17.4937 25.875 16.875C25.875 16.2562 25.3687 15.75 24.75 15.75H15.75C15.1312 15.75 14.625 16.2562 14.625 16.875C14.625 17.4937 15.1312 18 15.75 18Z" fill="#322871"/>
<path d="M9 23.625H11.25C11.8688 23.625 12.375 23.1187 12.375 22.5C12.375 21.8812 11.8688 21.375 11.25 21.375H9C8.38125 21.375 7.875 21.8812 7.875 22.5C7.875 23.1187 8.38125 23.625 9 23.625Z" fill="#322871"/>
<path d="M25.875 22.5C25.875 21.8812 25.3687 21.375 24.75 21.375H15.75C15.1312 21.375 14.625 21.8812 14.625 22.5C14.625 23.1187 15.1312 23.625 15.75 23.625H24.75C25.3687 23.625 25.875 23.1187 25.875 22.5Z" fill="#322871"/>
</svg>
