<svg width="48" height="48" viewBox="0 0 48 48" fill="none" xmlns="http://www.w3.org/2000/svg">
<path fill-rule="evenodd" clip-rule="evenodd" d="M19.3969 21.0375V17.7844C19.3969 16.4813 18.3281 15.4031 17.0156 15.4031C15.7125 15.4031 14.6344 16.4719 14.6344 17.7844V21.0375C14.7281 24.1781 19.3125 24.1688 19.3969 21.0375ZM15.5813 17.7938C15.5813 16.9969 16.2281 16.35 17.025 16.35C17.8219 16.35 18.4688 16.9969 18.4688 17.7938V21.0469C18.4313 22.95 15.6188 22.9406 15.5813 21.0469V17.7938ZM26.475 21.0375V17.7844C26.475 16.4813 25.4063 15.4031 24.0938 15.4031C22.7906 15.4031 21.7125 16.4719 21.7125 17.7844V21.0375C21.8063 24.1781 26.3813 24.1781 26.475 21.0375ZM22.65 17.7938C22.65 16.9969 23.2969 16.35 24.0938 16.35C24.8906 16.35 25.5375 16.9969 25.5375 17.7938V21.0469C25.5375 21.8438 24.8906 22.4906 24.0938 22.4906C23.2969 22.4906 22.65 21.8438 22.65 21.0469V17.7938ZM33.5438 21.0375V17.7844C33.5438 16.4719 32.475 15.4031 31.1625 15.4031C29.8594 15.4031 28.7813 16.4719 28.7813 17.7844V21.0375C28.875 24.1781 33.4594 24.1781 33.5438 21.0375ZM29.7188 17.7938C29.7188 16.9969 30.3656 16.35 31.1625 16.35C31.9594 16.35 32.6063 16.9969 32.6063 17.7938V21.0469C32.6063 21.8438 31.9594 22.4906 31.1625 22.4906C30.3656 22.4906 29.7188 21.8438 29.7188 21.0469V17.7938ZM45.8906 24.8906H36.9469C37.3313 24.4125 37.6125 23.85 37.7531 23.2219L39.8906 13.6125C40.5844 13.4344 41.0156 12.7875 41.1938 12.075L41.9344 9.15002C42.075 8.6344 41.9344 8.06252 41.5969 7.6969C41.2688 7.33127 40.7906 7.12502 40.3031 7.12502H12.4406L11.6813 4.29377C11.3063 2.87815 10.2281 1.71565 8.84064 1.25627C7.88439 0.843773 3.56252 1.10627 2.47502 1.04065C1.81877 1.04065 1.22814 1.30315 0.796893 1.72502C-0.759357 3.11252 0.356268 5.95315 2.47502 5.87815H7.09689L7.50939 7.4344C7.06877 7.72502 6.76877 8.20315 6.76877 8.76565C6.95627 10.1156 6.59064 12.1031 7.50939 13.1906C7.72502 13.4063 7.99689 13.5656 8.30627 13.6313L10.8094 23.3625C10.9125 23.7656 11.0813 24.1406 11.2875 24.4875L10.2469 28.3875C10.0781 29.0156 10.1531 29.6531 10.3875 30.2438C10.8938 31.5094 12.0563 32.3531 13.35 32.6344C11.0719 34.5188 11.8406 39.0094 15.675 39.1125C19.4438 39.0188 20.25 34.6875 18.1219 32.7469H22.9688V44.9531C22.9688 46.0781 23.8875 46.9969 25.0125 46.9969H45.8906C47.0156 46.9969 47.9344 46.0781 47.9344 44.9531V26.9531C47.9344 25.8094 47.0156 24.8906 45.8906 24.8906ZM7.90314 5.2969C7.84689 5.08127 7.64064 4.94065 7.41564 4.95002H2.47502C2.06252 4.95002 1.68752 4.78127 1.42502 4.51877C0.496893 3.6469 1.18127 1.9219 2.47502 1.96877H7.42502C8.58752 1.9594 9.69377 2.5594 10.3219 3.52502C10.7438 4.05002 11.1656 6.01877 11.4563 7.1344H8.47502C8.44689 7.1344 8.42814 7.14377 8.40002 7.14377L7.90314 5.2969ZM7.92189 11.9438C7.85627 10.9875 7.69689 9.6844 7.70627 8.76565C7.70627 8.39065 8.05314 8.10002 8.41877 8.0719H40.3031C40.7531 8.06252 41.1656 8.46565 41.025 8.9344C40.8188 9.46877 40.3781 12.1875 39.9375 12.5625C39.825 12.675 39.6844 12.7406 39.5063 12.7406H8.68127C8.25002 12.7406 7.94064 12.3656 7.92189 11.9438ZM9.28127 13.6688H38.925L36.8438 23.025C36.675 23.7844 36.2344 24.45 35.6156 24.8906H25.0125C24.4875 24.8906 24.0188 25.0969 23.6531 25.4156H14.5781C13.1906 25.4156 12.0656 24.4688 11.7188 23.1281L9.28127 13.6688ZM15.7969 26.3531H23.0625C23.0063 26.5406 22.9688 26.7375 22.9688 26.9344V27.8906H15.3938L15.7969 26.3531ZM17.6063 33.525C20.0813 36.1219 16.3594 39.8438 13.7625 37.3688C11.9344 35.4469 13.5 32.9063 15.4969 32.7281H15.8344C16.425 32.7563 17.0438 32.9906 17.6063 33.525ZM15.6938 31.8C15.6844 31.8 15.6844 31.8 15.6938 31.8H14.2875C13.0125 31.8 11.7563 31.0969 11.2688 29.8875C11.1094 29.475 11.0531 29.0344 11.1656 28.6219L12.0375 25.3594C12.7219 25.9781 13.6031 26.3438 14.5875 26.3438H14.85L14.3438 28.2281C14.2781 28.4719 14.4281 28.7344 14.6719 28.8C14.7281 28.8094 14.775 28.8188 14.8313 28.8188H22.9781V31.8H15.6938ZM46.9969 44.9344C46.9969 45.5438 46.5 46.0406 45.8906 46.0406H25.0125C24.4031 46.0406 23.9063 45.5438 23.9063 44.9344V26.9344C23.9063 26.325 24.4031 25.8281 25.0125 25.8281H45.8906C46.5 25.8281 46.9969 26.325 46.9969 26.9344V44.9344ZM39.7688 35.9906C39.5344 36.3375 39.3938 36.7406 39.3938 37.1719C39.3938 38.5594 38.25 39.7031 36.8625 39.7031C35.3531 39.6 33.2813 40.0969 32.2406 38.9625C30.7969 37.6313 31.6219 34.9875 33.5625 34.6969V35.3906C33.5156 36.7031 35.1094 37.5938 36.1969 36.8625L40.6969 34.0875C41.7844 33.4688 41.7844 31.7625 40.6969 31.1438L36.1969 28.3688C35.1094 27.6375 33.5156 28.5281 33.5625 29.8406V30.6C25.1719 31.4156 25.575 43.5563 34.0219 43.8094C34.0313 43.8094 36.5813 43.8281 36.9375 43.8094C40.725 43.7813 43.9969 40.3313 43.3594 36.5156C42.8813 34.9594 40.65 34.65 39.7688 35.9906ZM36.9188 42.8531C34.5 42.8063 31.8 43.1625 30.0188 41.1844C26.4844 37.7531 29.0063 31.4625 34.0031 31.4813C34.275 31.5 34.5094 31.2844 34.5 31.0125V29.8125C34.4813 29.3625 34.8844 28.9969 35.3156 29.0063C35.4469 29.0063 35.5875 29.0531 35.7188 29.1281L40.2188 31.9031C40.725 32.1844 40.7156 32.9813 40.2188 33.2625L35.7188 36.0375C35.2125 36.375 34.4719 35.9625 34.5 35.3531V34.1531C34.5 33.9 34.2938 33.6844 34.0313 33.6844C31.0031 33.6188 29.4094 37.5281 31.5844 39.5906C32.7375 40.9688 35.2688 40.5563 36.8625 40.6125C38.7656 40.6125 40.3219 39.0563 40.3219 37.1531C40.3219 36.9281 40.3875 36.7125 40.5094 36.5344C40.9781 35.7844 42.2156 35.9344 42.4875 36.7781C42.8438 40.0313 40.125 42.8156 36.9188 42.8531Z" fill="white"/>
</svg>
