<svg width="701" height="701" viewBox="0 0 701 701" fill="none" xmlns="http://www.w3.org/2000/svg">
<path d="M597.372 231.153L599.178 236.488C600.942 240.207 603.8 241.454 607.424 242.791C605.808 243.177 604.02 243.528 602.552 244.336C599.16 246.207 598.447 250.8 597.556 254.216C596.95 251.768 596.397 248.607 594.954 246.492C593.148 243.849 590.183 243.397 587.26 242.91C587.664 242.619 587.468 242.72 587.979 242.548C589.405 242.078 591.062 241.656 592.34 240.86C595.56 238.846 596.534 234.569 597.372 231.147V231.153Z" fill="#FEFDFC"/>
<path d="M105.611 196.88C106.194 198.763 106.758 200.741 107.631 202.512C109.318 205.916 112.301 207.187 115.741 208.275L111.766 209.938C108.35 211.786 107.459 214.988 106.39 218.445L105.992 218.915C105.154 217.691 105.094 215.909 104.465 214.542C102.92 211.186 100.544 209.79 97.2881 208.488L99.0466 207.49C103.597 204.811 104.346 201.74 105.611 196.886V196.88Z" fill="#FEFDFC"/>
<path d="M206.94 277.522L206.726 277.107C203.441 270.536 203.298 260.466 205.752 253.681C207.332 249.303 210.481 245.929 214.687 243.974C219.755 241.615 225.642 242.055 230.757 244.016C239.146 247.23 244.219 253.64 247.766 261.619C246.489 261.048 245.467 260.199 244.368 259.343C241.433 253.171 235.777 247.937 229.296 245.679C227.721 245.127 226.117 244.812 224.466 244.592C220.509 244.069 216.541 244.794 213.321 247.253C209.001 250.557 207.273 255.161 206.631 260.424C206.079 264.963 206.447 270.102 207.986 274.445C207.724 275.479 207.528 276.631 206.934 277.522H206.94Z" fill="#322871"/>
<path d="M249.002 39.5283C249.655 41.9403 250.22 44.4949 251.533 46.6515C253.749 50.2814 257.052 51.3924 260.991 52.3013C260.016 53.1806 257.913 53.644 256.672 54.3569C251.687 57.2382 250.713 60.1018 249.281 65.4189L248.8 65.4605L247.475 61.5632C245.289 56.2045 241.647 54.5589 236.627 52.4677L241.291 50.8398C245.954 48.5288 247.386 44.0672 249.008 39.5283H249.002Z" fill="#FEFDFC"/>
<path d="M481.03 43.1758L482.694 47.1621C483.971 49.9484 485.694 52.9546 488.254 54.7665C489.633 55.7408 491.801 56.2934 493.399 56.8756C492.175 57.0716 490.958 57.4221 489.835 57.9628C484.91 60.3272 483.205 65.4424 481.583 70.2545L478.713 63.8799C476.331 59.6143 473.557 57.9687 468.935 56.6439L473.117 55.1408C477.323 53.1803 479.539 47.2156 481.024 43.1758H481.03Z" fill="#FEFDFC"/>
<path d="M207.991 274.444C206.453 270.108 206.084 264.963 206.637 260.424C207.278 255.16 209.007 250.556 213.326 247.253C216.54 244.793 220.515 244.068 224.471 244.591C226.123 244.811 227.727 245.126 229.301 245.678C235.783 247.942 241.439 253.17 244.374 259.343C237.536 255.861 231.381 254.097 223.806 256.639C218.21 258.523 213.017 262.693 210.391 268.04C209.382 270.108 208.621 272.228 207.991 274.438V274.444Z" fill="white"/>
<path d="M504.135 231.349C506.737 231.224 509.565 231.824 511.799 233.185C514.668 234.937 516.445 237.73 517.247 240.95C517.954 243.801 517.461 247.229 515.874 249.707C513.724 253.057 510.67 254.857 506.838 255.707C504.183 255.802 501.913 255.689 499.59 254.275C496.584 252.439 494.291 249.386 493.537 245.934C492.877 242.922 493.709 239.268 495.408 236.738C497.529 233.577 500.523 232.127 504.135 231.349Z" fill="#FEFDFC"/>
<path d="M113.62 261.119C115.925 261 118.533 261.238 120.589 262.349C123.595 263.971 126.232 266.882 127.189 270.185C128.116 273.375 127.801 276.898 126.197 279.815C124.058 283.689 120.874 285.275 116.769 286.404C114.089 286.392 111.255 286.255 108.873 284.871C105.837 283.112 103.586 279.732 102.861 276.346C102.195 273.244 102.564 269.597 104.328 266.905C106.497 263.602 109.847 261.891 113.62 261.119Z" fill="#FEFDFC"/>
<path d="M80.1427 475.212C87.8124 476.971 94.888 479.489 101.673 483.517C108.576 487.623 116.792 494.538 118.557 502.814C118.979 504.792 118.616 506.123 117.553 507.768C115.586 508.998 113.84 509.075 111.618 508.642C107.726 507.887 104.394 504.643 101.661 501.976C93.5038 494.009 86.6658 484.515 80.1367 475.206L80.1427 475.212Z" fill="#FEFDFC"/>
<path d="M89.7549 432.723C97.7633 437.481 104.976 443.399 111.077 450.439C116.911 457.164 123.761 467.513 122.953 476.828C122.703 479.674 121.877 481.302 119.709 483.131L119.305 483.47L128.816 513.204L129.333 516.264L128.834 516.805C128.585 516.68 128.288 516.632 128.092 516.436C127.569 515.908 127.135 513.418 126.921 512.575L123.767 500.8L119.733 488.936C119.263 487.652 118.729 484.949 117.689 484.112L117.362 484.201C115.443 484.67 113.792 484.367 112.117 483.328C99.0584 475.224 93.0877 447.106 89.7608 432.729L89.7549 432.723Z" fill="#FEFDFC"/>
<path d="M129.399 349.092C127.242 346.229 125.46 342.997 124.284 339.604C121.842 332.552 121.248 324.301 124.64 317.463C127.438 311.813 132.429 307.743 138.429 305.824C144.531 303.876 150.05 304.511 155.676 307.351C154.482 301.517 154.547 296.164 156.603 290.514C158.569 285.108 162.734 279.91 167.896 277.242C169.132 276.601 171.431 275.852 172.382 274.925C172.815 274.504 173.314 273.214 173.635 272.644C175.661 269.002 177.788 265.925 181.727 264.161C185.475 262.485 189.076 262.408 192.884 263.905C198.706 266.198 201.575 272.383 203.946 277.73C202.9 278.098 202.241 278.074 201.148 277.938L195.45 275.211C188.832 272.311 182.196 272.401 175.507 274.949C174.235 275.959 172.982 277.07 171.591 277.908C165.621 284.342 162.009 291.899 162.413 300.822C162.508 302.889 162.846 305.016 163.322 307.024C163.429 307.488 164.344 310.09 164.254 310.363C164.171 310.613 163.922 310.773 163.749 310.975L161.112 311.652L158.89 311.878C151.214 310.975 143.877 311.046 137.467 316.09C133.878 318.912 131.122 323.035 130.557 327.633C130.326 329.552 130.427 331.489 130.759 333.39C131.538 337.852 133.564 342.123 136.142 345.825L131.621 347.809L129.399 349.08V349.092Z" fill="#322871"/>
<path d="M161.111 311.67C158.836 309.342 157.398 306.389 156.988 303.139C156.18 296.771 158.444 289.594 162.424 284.615C164.391 282.156 168.324 278.294 171.585 277.914C165.615 284.348 162.002 291.905 162.406 300.828C162.502 302.896 162.84 305.023 163.315 307.031C163.422 307.494 164.337 310.096 164.248 310.369C164.165 310.619 163.915 310.779 163.743 310.981L161.105 311.659L161.111 311.67Z" fill="white"/>
<path d="M175.5 274.962C175.209 273.69 176.16 272.443 176.831 271.338C178.548 268.51 181.643 265.925 184.928 265.23C188.19 264.541 191.666 265.218 194.392 267.12C197.838 269.52 199.793 273.393 201.397 277.148L201.141 277.95L195.444 275.223C188.826 272.324 182.19 272.413 175.5 274.962Z" fill="white"/>
<path d="M131.615 347.815L131.424 347.654C127.206 343.579 124.943 335.689 124.581 330.01C124.2 324.099 125.549 318.722 129.577 314.278C133.534 309.906 139.272 307.185 145.178 306.941C150.168 306.739 155.194 308.45 158.889 311.884C151.214 310.981 143.877 311.052 137.466 316.096C133.878 318.918 131.122 323.041 130.557 327.64C130.325 329.558 130.426 331.495 130.759 333.396C131.537 337.858 133.563 342.129 136.142 345.831L131.621 347.815H131.615Z" fill="white"/>
<path d="M159.002 105.49C157.743 102.086 154.523 96.6917 155.646 93.0856C156.157 91.4459 157.268 90.5488 158.771 89.824C165.591 86.5327 173.504 84.4594 180.657 81.8929C185.446 80.1759 190.567 77.6392 195.504 76.552C196.757 76.2728 198.046 76.3559 199.24 76.855C202.757 78.3283 205.039 86.8773 206.524 90.3825C207.041 92.0934 207.492 93.4064 207.082 95.2065L206.993 95.6283C206.554 97.5472 205.324 99.1156 203.625 100.09C201.189 101.486 198.189 102.359 195.551 103.352L181.269 108.651C177.093 110.19 172.821 112.251 168.544 113.41C167.522 113.689 166.536 113.73 165.514 113.41C163.155 112.673 161.361 110.754 160.304 108.585L159.002 105.502V105.49Z" fill="#071647"/>
<path d="M160.826 431.131C162.014 434.22 162.05 437.755 162.466 441.022L164.83 460.384L166.238 471.927C166.339 473.073 166.702 474.315 166.44 475.444C167.26 489.892 171.585 503.996 177.918 516.929C178.78 518.682 180.936 521.753 180.312 523.548L180.211 523.732L137.134 523.791C137.49 520.286 138.999 516.282 139.896 512.848L145.362 491.407L160.832 431.119L160.826 431.131Z" fill="#74BA60"/>
<path d="M166.44 475.444C167.26 489.893 171.585 503.996 177.918 516.93C178.78 518.682 180.936 521.754 180.312 523.548L168.038 523.471L167.094 493.047C166.82 487.273 166.007 481.189 166.44 475.444Z" fill="#01634F"/>
<path d="M95.0365 543.474C90.1649 542.933 84.931 543.367 80.0238 543.509L80 523.655L137.134 523.803L180.212 523.744L215.608 523.797L215.631 543.159L211.479 543.218L95.0365 543.48V543.474Z" fill="#FEFDFC"/>
<path d="M525.587 119.214L550.848 38.0669L617.624 60.6662L577.333 194.836L535.984 181.38C538.384 175.237 540.285 168.637 540.766 162.036C541.913 146.263 535.812 130.995 525.587 119.214Z" fill="#8172DE"/>
<path d="M578.747 52.6697L581.01 52.6519C582.293 52.7529 583.571 53.6975 584.313 54.7134C585.038 55.7055 585.371 57.0778 585.08 58.2779C584.646 60.0958 583.268 60.9157 581.794 61.8068C581.337 61.8544 580.909 61.9019 580.452 61.8544C578.949 61.688 577.285 61.0167 576.394 59.7394C575.64 58.6641 575.521 57.2204 575.764 55.9669C576.085 54.2975 577.416 53.5073 578.747 52.6697Z" fill="#322826"/>
<path d="M576.905 93.4307C577.475 93.502 577.725 93.7515 578.153 94.1139C578.777 94.6426 579.175 94.7436 579.246 95.5813L552.541 118.994L549.916 116.796L576.899 93.4366L576.905 93.4307Z" fill="#FEFDFC"/>
<path d="M560.3 86.1587C561.203 86.2478 562.16 86.3429 563.01 86.6874C564.536 87.3053 565.522 88.8083 566.075 90.2995C566.859 92.4026 566.639 95.3612 565.582 97.3455C564.412 99.5555 562.807 100.637 560.455 101.332C559.487 101.189 558.399 101.07 557.52 100.625C556.088 99.9001 554.995 98.4386 554.55 96.9118C553.884 94.6305 554.259 91.6956 555.387 89.6341C556.504 87.5964 558.162 86.7587 560.289 86.1587H560.3Z" fill="#FEFDFC"/>
<path d="M559.593 89.7529C560.366 89.6697 561.12 89.7589 561.886 89.8242C562.736 90.5015 563.306 91.1015 563.407 92.2362C563.597 94.3987 562.772 95.9196 561.453 97.5236C560.728 97.6425 560.009 97.5236 559.29 97.4524C558.256 96.5909 557.633 96.0206 557.526 94.5651C557.371 92.462 558.322 91.256 559.599 89.7589L559.593 89.7529Z" fill="#8172DE"/>
<path d="M571.006 109.893C572.182 109.881 573.525 109.893 574.582 110.451C576.133 111.259 577.274 112.947 577.666 114.622L577.761 115.073C578.159 116.909 577.963 118.715 577.184 120.432C575.972 123.118 574.048 124.573 571.368 125.547C570.477 125.547 569.693 125.434 568.843 125.149C567.079 124.561 565.695 123.397 564.934 121.668C564.067 119.696 564.198 117.604 564.946 115.626C566.081 112.632 568.184 111.093 571 109.893H571.006Z" fill="#FEFDFC"/>
<path d="M571.511 113.434L573.287 114.141C573.97 114.972 574.38 115.626 574.315 116.743C574.161 119.285 572.717 120.747 570.887 122.274C569.96 122.078 569.36 121.709 568.588 121.198C567.881 119.957 567.768 118.858 568.047 117.45C568.422 115.525 570.008 114.455 571.523 113.44L571.511 113.434Z" fill="#8172DE"/>
<path d="M347.484 37.2352C361.232 35.9995 375.525 39.6294 386.463 48.2081C399.758 58.6404 407.381 73.7719 409.252 90.4659C410.874 104.879 406.109 121.234 397.043 132.504C387.496 144.368 374.521 151.865 359.372 153.469C345.227 155.186 330.891 150.457 319.728 141.849C307.425 132.361 299.79 117.01 297.913 101.76C295.982 86.0518 301.234 69.1915 311.001 56.8997C319.912 45.6832 333.375 38.8987 347.478 37.2352H347.484Z" fill="#74BA60"/>
<path d="M363.483 67.4985L370.434 67.5579L343.254 120.212L335.751 120.23L363.489 67.5045L363.483 67.4985Z" fill="#FEFDFC"/>
<path d="M368.171 96.5968C370.464 96.7156 372.555 96.9413 374.539 98.1949C377.308 99.9415 379.393 103.037 380.017 106.257C380.611 109.322 379.72 112.572 377.943 115.097C375.87 118.038 373.226 119.226 369.781 119.808C367.244 119.82 364.909 119.529 362.705 118.174C360.097 116.576 358.469 113.962 357.869 110.98C357.257 107.932 357.816 104.558 359.533 101.961C361.653 98.7474 364.481 97.3453 368.171 96.5908V96.5968Z" fill="#FEFDFC"/>
<path d="M368.242 102.811L370.309 103.138C371.658 103.47 372.793 104.593 373.434 105.787C374.094 107.017 374.242 108.716 373.743 110.029C373.06 111.841 371.408 112.631 369.751 113.326C369.02 113.309 368.248 113.303 367.535 113.107C366.21 112.738 365.028 111.651 364.434 110.433C363.757 109.043 363.739 107.546 364.345 106.12C365.105 104.338 366.579 103.56 368.242 102.817V102.811Z" fill="#74BA60"/>
<path d="M336.542 67.5936C339.209 67.3916 341.473 67.4985 343.873 68.8293C346.487 70.2848 348.792 73.0949 349.6 75.9762C350.532 79.2972 349.849 82.8261 348.114 85.7669C346.35 88.767 343.908 90.0978 340.617 90.9177C337.961 90.9711 335.983 90.9652 333.565 89.7592C330.452 88.2086 328.515 85.5233 327.458 82.2677C326.555 79.4873 327.078 75.8277 328.48 73.2909C330.268 70.0472 333.114 68.5619 336.536 67.5876L336.542 67.5936Z" fill="#FEFDFC"/>
<path d="M336.999 73.8372C338.009 73.7659 339.232 73.6768 340.23 73.9025C341.419 74.1699 342.47 75.2274 343.088 76.2373C343.819 77.4374 343.938 79.1959 343.528 80.5386C342.88 82.6714 341.591 83.4971 339.714 84.412C339.09 84.4952 338.508 84.519 337.884 84.4358C336.44 84.2457 335.228 83.5328 334.391 82.3327C333.553 81.1327 333.185 79.6534 333.517 78.2157C334.016 76.0472 335.264 75.0135 336.999 73.8313V73.8372Z" fill="#74BA60"/>
<path d="M535.984 181.38C534.368 184.802 532.734 188.069 530.596 191.206C517.11 210.984 490.78 222.848 467.408 214.204C464.016 212.95 460.677 211.524 457.516 209.76C456.768 209.344 452.936 206.736 452.342 206.724C452.003 206.712 450.631 207.609 450.197 207.841L437.175 215.338C435.66 216.194 433.551 217.697 431.816 217.917C430.871 218.041 430.028 217.816 429.291 217.18C428.453 216.455 428.299 215.606 428.346 214.548C428.471 211.881 429.665 208.762 430.378 206.177L434.067 192.43C434.246 191.753 435.048 189.703 434.941 189.133C434.537 187.024 432.82 184.356 432.042 182.265C429.315 174.958 427.437 167.288 427.348 159.452C427.176 144.677 433.319 128.624 443.781 118.145C454.267 107.635 468.673 101.267 483.597 101.243C500.018 101.219 514.032 107.748 525.593 119.226C535.818 131.007 541.925 146.275 540.773 162.048C540.291 168.649 538.39 175.243 535.99 181.392L535.984 181.38Z" fill="#74BA60"/>
<path d="M495.972 161.941C498.425 162.024 500.736 162.547 502.81 163.925C505.245 165.541 506.939 168.256 507.408 171.137C507.931 174.334 507.283 177.482 505.382 180.108C503.374 182.883 500.635 183.934 497.362 184.451C495.098 184.415 492.764 184.047 490.845 182.77C488.243 181.035 486.347 177.964 485.771 174.928C485.278 172.355 486.11 169.058 487.607 166.902C489.746 163.824 492.377 162.6 495.972 161.941Z" fill="#FEFDFC"/>
<path d="M494.831 168.553L495.134 168.529C496.976 168.44 498.39 168.411 499.78 169.789C500.772 170.769 501.17 171.892 501.081 173.282C500.945 175.439 499.875 176.579 498.307 177.863L496.566 177.904C495.004 177.863 493.905 177.459 492.865 176.259C491.974 175.231 491.677 174.043 491.802 172.712C491.998 170.627 493.317 169.759 494.831 168.559V168.553Z" fill="#74BA60"/>
<path d="M494.225 131.007L501.2 131.06L471.632 184.814L465.073 184.647C465.216 183.222 466.386 181.404 467.081 180.109L473.331 168.845L494.225 131.013V131.007Z" fill="#FEFDFC"/>
<path d="M465.757 130.757C468.079 130.633 470.408 130.983 472.452 132.136C475.114 133.639 477.347 136.407 478.06 139.401C478.797 142.502 478.482 145.509 476.735 148.218C474.739 151.319 471.864 152.816 468.341 153.535C465.768 153.689 463.345 153.232 461.117 151.919C458.396 150.315 456.572 147.564 455.895 144.499C455.241 141.534 455.895 138.29 457.576 135.771C459.572 132.795 462.329 131.476 465.757 130.757Z" fill="#FEFDFC"/>
<path d="M465.822 136.989L467.996 137.257C469.476 137.536 470.729 138.463 471.501 139.752C472.185 140.893 472.404 142.348 471.989 143.619C471.394 145.449 470.183 146.198 468.59 147.053C467.64 147.071 466.547 147.148 465.614 146.923C464.402 146.631 463.137 145.467 462.554 144.392C461.984 143.34 461.895 141.427 462.311 140.292C462.946 138.558 464.265 137.762 465.822 136.983V136.989Z" fill="#74BA60"/>
<path d="M95.0362 543.474L211.478 543.212L202.597 592.415L200.684 603.234C199.383 609.798 190.549 659.874 189.562 661.11C189.301 661.259 189.028 661.437 188.737 661.532C187.358 661.983 185.273 661.645 183.806 661.645L170.474 661.657L130.123 661.669C123.672 661.669 117.059 661.995 110.631 661.639C110.061 661.603 109.49 661.395 108.968 661.176C109.152 660.801 88.6616 553.187 86.6357 543.551L95.0303 543.474H95.0362Z" fill="#12283F"/>
<path d="M148.582 572.971C150.662 573.191 152.575 573.517 154.066 575.157C155.004 576.197 155.563 577.652 155.759 579.019C156.133 581.692 155.842 584.74 155.824 587.437L155.539 606.822C155.426 613.007 155.872 619.482 155.284 625.619C155.046 628.079 154.583 629.748 152.497 631.287C151.315 632.16 150.626 632.297 149.248 632.13L147.762 632.624C145.083 631.958 144.156 631.15 142.439 629.118C141.245 624.508 141.673 619.435 141.655 614.712L141.602 593.2V583.724C141.602 581.977 141.477 579.999 141.964 578.312C142.368 576.921 143.2 575.115 144.519 574.432L144.875 574.26C146.117 573.618 147.216 573.28 148.57 572.971H148.582Z" fill="#12283F"/>
<path d="M118.646 572.899L120.077 572.87C122.192 572.87 124.135 573.606 125.608 575.157C126.594 576.191 127.242 577.486 127.628 578.852C128.484 581.882 128.84 585.155 129.399 588.257L132.607 607.481C133.545 613.66 135.351 620.973 134.977 627.205C134.882 628.798 134.205 630.182 132.916 631.186C131.822 632.035 131.276 632.309 129.939 632.095C129.09 632.517 128.329 632.766 127.379 632.57C125.567 632.19 123.773 631.103 122.852 629.451C121.467 626.962 121.289 623.076 120.772 620.296L117 599.628C115.877 593.366 114.273 587.009 113.566 580.694C113.435 579.547 113.542 578.68 113.917 577.593C114.754 575.169 116.447 573.992 118.634 572.899H118.646Z" fill="#12283F"/>
<path d="M174.675 573.297C176.801 573.208 178.411 573.202 180.354 574.236C181.929 575.074 183.164 576.488 183.669 578.205C184.103 579.678 183.948 580.931 183.741 582.435C182.303 592.659 179.505 603.121 177.318 613.238L175.269 622.922C174.829 625.019 174.467 627.461 173.374 629.326C172.619 630.621 171.859 631.376 170.427 631.721L169.845 632.249C168.864 632.962 167.088 632.873 165.971 632.641C164.343 632.303 162.716 630.948 161.937 629.499C161.135 628.019 161.129 626.516 161.248 624.877C161.682 618.882 163.316 612.787 164.343 606.858C165.9 597.887 166.94 588.441 169.459 579.696C170.379 576.5 171.775 574.878 174.675 573.297Z" fill="#12283F"/>
<path d="M206.518 90.3829C210.968 88.3095 215.435 86.7114 220.087 85.1489C224.893 83.5389 229.301 81.2398 234.375 83.1112C237.987 84.4479 239.947 86.6104 241.516 90.0799C244.017 95.6228 245.989 101.481 248.146 107.178L261.365 142.859L268.179 160.819C269.515 164.264 271.25 167.912 272.064 171.518C272.557 173.71 272.272 176.443 271.524 178.552C270.318 181.939 267.965 183.941 264.745 185.355L246.061 192.894L200.547 211.281L183.17 218.404C180.74 219.355 178.132 220.596 175.601 221.196C173.712 221.648 171.413 221.297 169.625 220.614C166.791 219.539 164.908 217.495 163.761 214.762L157.731 198.585L142.76 158.02L134.87 137.144C133.67 133.853 132.132 130.371 131.436 126.931C130.967 124.609 131.341 121.929 132.232 119.749C133.759 116 136.433 113.992 140.08 112.519L159.014 105.491L160.315 108.574C161.373 110.748 163.167 112.667 165.525 113.398C166.547 113.719 167.533 113.677 168.555 113.398C172.839 112.24 177.11 110.178 181.281 108.639L195.563 103.34C198.201 102.354 201.195 101.481 203.637 100.078C205.336 99.1042 206.565 97.5417 207.005 95.6168L207.094 95.195C207.504 93.3949 207.053 92.082 206.536 90.371L206.518 90.3829Z" fill="#12283F"/>
<path d="M231.684 107.617L232.824 107.504C234.654 108.651 238.676 120.075 239.728 122.773L220.467 128.767L218.709 129.48C217.241 128.327 213.873 117.23 212.869 114.616L231.678 107.617H231.684Z" fill="#A76A98"/>
<path d="M228.309 116.879C229.076 117.111 229.028 117.378 229.42 118.038L229.111 118.561L223.325 121.436C222.796 121.163 222.481 120.563 222.131 120.082C222.998 118.816 226.783 117.634 228.309 116.879Z" fill="#C3BCC1"/>
<path d="M193.228 172.1L165.769 182.61L157.417 159.993L183.937 149.531L184.234 149.382L193.228 172.106V172.1Z" fill="#8172DE"/>
<path d="M251.176 152.596C252.703 153.832 257.848 169.154 258.531 171.589C257.818 173.77 256.861 176.289 254.883 177.619C253.243 178.724 250.867 179.301 248.99 179.99L238.26 184.125C236.983 184.624 235.064 185.812 233.763 185.978C233.276 186.038 233.217 185.996 232.801 185.901L224.198 162.957L251.182 152.602L251.176 152.596Z" fill="#8172DE"/>
<path d="M193.026 174.833C193.258 174.946 193.549 174.987 193.721 175.178C194.737 176.33 195.593 179.871 196.145 181.368L202.55 198.092L190.995 202.601C186.479 204.371 181.816 206.896 176.867 205.904C175.744 205.387 174.604 204.74 173.861 203.718C172.227 201.472 171.413 197.931 170.492 195.335L166.53 184.76L193.02 174.839L193.026 174.833Z" fill="#8172DE"/>
<path d="M195.058 173.437C197.512 171.874 200.963 171.096 203.702 170.08L222.018 163.165L231.072 186.982L204.76 197.254L198.741 181.915C197.749 179.33 196.745 175.558 195.058 173.437Z" fill="#8172DE"/>
<path d="M213.249 137.393C220.141 135.563 226.919 132.474 233.519 129.777C235.504 128.969 239.3 126.795 241.332 126.711L248.8 145.562C249.281 146.839 250.629 149.263 250.546 150.535L231.571 157.806C228.933 158.792 225.018 159.737 222.79 161.401L213.255 137.399L213.249 137.393Z" fill="#8172DE"/>
<path d="M212.791 137.078L213.249 137.387L222.784 161.388C222.57 162.042 222.422 162.594 222.024 163.165L203.708 170.08C200.969 171.096 197.517 171.874 195.064 173.437C194.137 173.169 193.887 172.777 193.228 172.094L184.233 149.37C184.198 148.598 184.412 148.105 184.679 147.398C187.804 146.762 191.042 145.152 194.036 144.023L212.797 137.072L212.791 137.078Z" fill="#74BA60"/>
<path d="M184.673 147.404C182.398 147.332 178.833 149.15 176.623 149.952L156.424 157.313L156.288 157.034C154.571 153.339 153.258 149.34 151.832 145.514C151.095 143.524 150.02 141.463 149.646 139.372C149.509 138.599 149.622 138.177 149.913 137.435C150.269 136.52 150.899 135.795 151.766 135.32C155.794 133.122 160.945 131.874 165.264 130.217L204.665 115.008L210.843 131.06C211.538 133.009 212.578 135.005 212.78 137.072L194.018 144.023C191.03 145.152 187.786 146.762 184.661 147.398L184.673 147.404Z" fill="#8172DE"/>
<path d="M172.839 136.217L173.32 136.389C174.205 137.934 174.781 139.627 175.417 141.29L161.129 146.613L161.058 146.602C159.858 145.996 159.204 143.037 158.723 141.7L172.833 136.223L172.839 136.217Z" fill="#0A080B"/>
<path d="M435.594 496.749L437.965 486.75C439.129 481.997 439.973 477.298 443.627 473.751C448.189 469.325 454.094 469.569 460.006 469.711C456.007 470.781 451.914 472.432 449.793 476.229C447.601 480.15 446.959 485.71 445.831 490.095L438.874 517.049L421.645 583.658L405.949 645.682C405.444 648.017 404.951 650.636 405.622 652.989C406.573 656.298 408.813 659.584 411.973 661.11C412.781 661.497 413.31 661.639 414.213 661.675L441.541 661.758L492.11 661.74L548.329 661.776L565.534 661.752C567.804 661.74 570.881 662.126 573.014 661.295L573.264 661.188C575.646 662.322 580.238 661.663 583.013 661.663L609.075 661.681C610.347 661.681 614.096 661.247 614.999 661.693C615.325 661.859 615.575 662.15 615.86 662.376L615.83 663.415C615.521 663.629 615.414 663.736 614.999 663.837C613.496 664.182 611.143 663.873 609.569 663.873L596.196 663.897L535.533 663.867L287.796 663.819L154.731 663.707L114.564 663.754L93.3731 663.808C92.7671 663.79 92.5117 663.73 92.0126 663.38L91.9473 662.192C93.2721 661.372 94.8524 661.663 96.403 661.663C99.9319 661.663 105.451 662.4 108.736 661.277L108.98 661.182C109.503 661.401 110.073 661.609 110.643 661.645C117.071 662.002 123.678 661.675 130.136 661.675L170.486 661.663L183.818 661.651C185.285 661.651 187.37 661.99 188.749 661.538C189.04 661.443 189.313 661.265 189.575 661.116C190.555 659.881 199.395 609.804 200.696 603.24L202.609 592.421C204.047 593.58 205.77 594.12 207.451 594.833L215.81 598.38L251.705 614.183L258.495 617.225C259.499 617.7 260.842 618.621 261.977 618.508C263.45 619.821 265.535 620.54 267.335 621.336L276.9 625.566L302.708 636.949L313.116 641.719C314.156 642.212 315.95 643.371 317.019 643.341L324 628.905L342.999 589.534C343.902 590.544 344.924 590.96 346.148 591.459C347.805 592.136 350.473 593.378 352.291 593.36C354.792 593.33 362.319 588.465 365.01 586.985C373.262 582.458 381.704 577.266 390.39 573.618C399.07 569.971 406.698 572.834 414.914 576.161L422.786 545.761L434.246 500.319C434.953 499.143 435.285 498.079 435.6 496.749H435.594Z" fill="#071647"/>
<path d="M339.696 635.528C345.369 636.598 351.643 637.447 357.4 636.544L357.988 636.443C361 635.968 363.661 635.095 366.317 633.604C372.395 630.193 375.151 624.342 377.022 617.914C383.629 618.478 389.599 619.773 395.826 622.12C397.043 622.583 398.279 623.094 399.402 623.759C400.222 624.247 400.958 625.084 401.933 625.179L402.325 625.162C401.98 629.011 400.703 632.867 399.764 636.61C399.402 638.047 399.111 640.335 398.297 641.523C392.124 641.505 341.597 642.26 339.226 641.054C338.787 640.418 339.589 636.538 339.702 635.528H339.696Z" fill="white"/>
<path d="M342.981 589.534C343.884 590.544 344.906 590.959 346.13 591.458C347.787 592.136 350.455 593.377 352.273 593.36C354.774 593.33 362.301 588.464 364.992 586.985C373.244 582.458 381.686 577.266 390.372 573.618C399.052 569.97 406.68 572.834 414.896 576.161C414.462 577.854 414.088 580.89 413.126 582.268C410.559 581.9 408.112 581.828 405.521 581.864L405.486 582.363L413.167 582.915L411.005 591.227C410.672 592.504 410.434 594.215 409.603 595.243C408.949 594.898 408.373 594.542 407.618 594.488L407.743 594.993L408.153 595.237L409.567 596.217C409.282 598.308 407.042 608.562 405.89 609.727C405.212 609.299 404.856 608.889 404.03 608.925C404.333 610.22 405.266 610.024 405.789 610.951C406.056 611.42 402.895 623.932 402.313 625.161L401.921 625.179C400.947 625.084 400.21 624.246 399.39 623.759C398.267 623.094 397.032 622.583 395.814 622.12C389.588 619.773 383.623 618.478 377.011 617.913C375.145 624.342 372.383 630.193 366.305 633.603C363.644 635.095 360.982 635.968 357.976 636.443L357.388 636.544C351.631 637.447 345.357 636.598 339.684 635.528C335.971 634.792 332.115 633.14 328.669 631.619C327.024 630.888 325.2 630.265 323.976 628.904L342.975 589.534H342.981Z" fill="#EF735D"/>
<path d="M202.597 592.421C204.035 593.579 205.758 594.12 207.439 594.833L215.798 598.38L251.693 614.183L258.483 617.224C259.487 617.7 260.83 618.62 261.965 618.508C263.438 619.82 265.523 620.539 267.323 621.335L276.888 625.565L302.696 636.948L313.104 641.719C314.144 642.212 315.938 643.37 317.007 643.341L323.988 628.904C325.212 630.265 327.036 630.888 328.681 631.619C332.127 633.14 335.983 634.792 339.696 635.528C339.589 636.538 338.787 640.418 339.221 641.053C337.854 641.582 336.274 641.35 334.83 641.315C329.37 641.196 322.592 639.942 319.948 646.204C319.134 648.135 319.158 650.327 319.491 652.353L319.568 652.864C320.091 655.888 322.105 658.466 324.588 660.189L327.927 662.055L237.868 661.959L207.35 661.918C201.997 661.906 196.484 662.156 191.155 661.811C190.466 661.763 190.097 661.502 189.557 661.116C190.537 659.88 199.377 609.804 200.678 603.239L202.591 592.421H202.597Z" fill="url(#paint0_linear_4046_491)"/>
<path d="M202.597 592.421C204.035 593.579 205.758 594.12 207.439 594.833L215.798 598.38L251.693 614.183L258.483 617.224C259.487 617.7 260.83 618.62 261.965 618.508L261.056 619.339C239.68 622.809 218.121 615.436 200.684 603.239L202.597 592.421Z" fill="#01634F"/>
<path d="M207.991 274.445C208.621 272.235 209.381 270.114 210.391 268.046C213.011 262.705 218.21 258.529 223.806 256.646C231.375 254.103 237.535 255.867 244.373 259.349C245.467 260.204 246.488 261.054 247.772 261.624C253.641 267.007 257.634 271.801 259.79 279.673C257.836 287.604 257.871 294.008 262.256 301.137L265.119 305.373C268.494 309.395 271.88 313.132 277.435 313.661C278.861 313.797 280.358 313.679 281.783 313.548C282.36 314.736 281.7 316.477 281.421 317.724C279.354 324.824 276.835 331.644 273.383 338.197C272.242 340.365 271.125 342.676 269.646 344.631L245.799 353.281C234.173 355.907 222.891 359.846 211.924 364.503L200.553 370.723C192.569 375.607 185.404 381.138 178.691 387.655C171.336 394.79 164.961 402.519 162.258 412.631C161.563 415.221 161.48 417.989 161.295 420.651L158.919 420.306C143.693 417.764 128.84 408.805 119.875 396.145C114.897 389.117 112.253 379.742 113.792 371.151C115.497 361.64 121.693 354.469 129.399 349.087L131.621 347.815L136.142 345.831C133.563 342.13 131.537 337.852 130.759 333.397C130.426 331.501 130.319 329.559 130.557 327.64C131.121 323.047 133.878 318.919 137.466 316.097C143.877 311.053 151.214 310.981 158.889 311.884L161.111 311.659L163.749 310.981C163.915 310.779 164.171 310.619 164.254 310.369C164.343 310.096 163.428 307.488 163.321 307.031C162.846 305.023 162.507 302.89 162.412 300.828C162.008 291.899 165.62 284.348 171.591 277.914C172.987 277.077 174.235 275.966 175.506 274.956C182.196 272.407 188.832 272.318 195.45 275.217L201.147 277.944C202.24 278.081 202.9 278.098 203.945 277.736C205.003 277.51 205.87 277.421 206.952 277.522C207.546 276.625 207.736 275.478 208.003 274.445H207.991Z" fill="#071647"/>
<path d="M265.113 305.379C268.488 309.401 271.874 313.138 277.429 313.667C278.855 313.804 280.352 313.685 281.778 313.554C282.354 314.742 281.694 316.483 281.415 317.731C279.348 324.83 276.829 331.65 273.377 338.203C272.236 340.371 271.12 342.683 269.64 344.637L245.793 353.287C234.167 355.913 222.885 359.852 211.918 364.509L211.372 363.797C211.77 362.389 213.677 361.581 214.906 360.856L228.351 353.495C240.868 345.974 252.031 335.452 258.602 322.311C259.962 319.59 261.008 316.774 261.852 313.845C262.624 311.166 263.153 307.898 264.882 305.659L265.107 305.385L265.113 305.379Z" fill="#030329"/>
<path d="M267.805 269.11C268.898 260.198 270.223 251.37 272.955 242.779C278.766 224.517 289.923 206.463 307.484 197.533C324.493 188.883 343.563 188.527 361.493 194.492C382.72 201.555 400.549 217.655 410.541 237.51L411.011 237.843C412.728 239.013 415.211 239.649 417.148 240.433L435.856 247.776C439.218 249.077 443.496 250.128 446.395 252.243C448.682 253.913 450.167 256.343 450.779 259.093C451.076 260.424 451.053 261.654 450.755 262.979C449.829 267.125 448.32 271.248 447.06 275.306L442.26 291.97C439.272 302.765 437.109 314.077 433.527 324.663L443.401 349.627L408.89 365.133L404.416 343.692L404.256 343.924C401.879 347.405 400.275 351.534 398.03 355.146C389.885 368.234 377.938 377.52 362.628 380.544C358.291 381.399 353.978 381.292 349.581 381.257C346.314 380.686 343.088 380.045 339.945 378.981C339.393 378.797 338.228 378.559 337.783 378.233C337.48 378.013 337.313 377.395 337.01 377.175C335.852 376.314 333.202 375.743 331.8 375.102C313.752 366.891 301.935 352.057 294.925 333.872C294.349 331.383 293.226 328.959 292.412 326.535C290.517 320.879 289.311 315.098 288.96 309.146L281.772 313.56C280.352 313.69 278.849 313.809 277.423 313.673C271.874 313.144 268.482 309.407 265.107 305.385L262.244 301.149C257.859 294.02 257.824 287.616 259.778 279.685C260.693 278.253 261.264 276.613 262.178 275.169C263.664 272.823 265.743 270.951 267.793 269.116L267.805 269.11Z" fill="#EF735D"/>
<path d="M364.47 345.724C365.402 345.813 366.43 345.825 367.214 346.383C367.826 346.823 367.696 346.989 367.826 347.69L367.084 348.255L364.785 347.726L362.628 348.635C361.885 348.177 361.915 348.148 361.624 347.316C362.509 346.359 363.24 346.104 364.47 345.718V345.724Z" fill="#0A080B"/>
<path d="M410.506 284.835C414.154 284.758 430.248 284.396 432.173 285.501L432.125 286.249C430.503 287.087 424.794 286.386 422.733 286.332L413.69 286.196C412.407 286.184 410.702 286.006 409.484 286.451C407.607 287.14 406.639 289.861 405.896 291.537L405.438 291.251C405.492 290.539 405.569 289.814 405.837 289.148C406.704 287.01 408.486 285.744 410.5 284.829L410.506 284.835Z" fill="#030329"/>
<path d="M418.687 273.577L410.809 273.619C408.046 275.021 406.698 276.518 404.809 278.942C405.664 276.857 406.341 275.062 408.213 273.648C411.688 271.023 419.346 271.955 423.558 272.454C426.861 272.46 430.277 272.436 433.545 272.965L433.895 273.613L433.384 274.136L418.693 273.571L418.687 273.577Z" fill="#030329"/>
<path d="M275.557 279.619L276.027 279.566C279.294 279.245 282.288 280.552 284.784 282.608C287.314 284.687 289.643 289.701 289.821 293.022C289.887 294.252 289.905 294.311 289.085 295.232C287.124 295.131 287.499 290.277 285.556 288.834C284.296 289.03 283.518 289.517 282.502 290.23L282.128 290.497C280.732 292.274 280.007 295.422 278.308 296.545L277.423 296.034C277.108 294.798 277.381 294.014 277.951 292.868C279.627 289.499 281.896 287.871 285.384 286.653C283.079 282.804 280.025 281.966 275.979 280.855L275.545 279.613L275.557 279.619Z" fill="#0A080B"/>
<path d="M366.549 298.482C367.755 298.654 369.116 298.897 370.167 299.527C371.248 300.169 372.377 301.339 372.567 302.646C372.805 304.244 371.587 306.009 370.72 307.25L370.411 307.684C372.425 308.51 374.623 309.454 376.34 310.803C377.415 311.647 378.538 312.746 378.621 314.189C378.746 316.221 377.373 318.378 376.043 319.809C374.255 321.734 371.587 324.604 368.842 324.729L368.694 323.748C369.448 321.758 373.5 319.756 375.033 317.801C376.072 316.477 376.369 315.698 376.191 314.1C374.326 311.219 369.995 310.155 367.024 308.73C367.987 307.482 369.419 305.89 369.953 304.411C370.179 303.787 370.221 303.086 369.965 302.474C369.139 300.46 366.775 300.798 365.046 300.175L365.034 299.42L366.549 298.476V298.482Z" fill="#0A080B"/>
<path d="M381.342 299.26L380.403 298.125C380.332 296.289 381.669 294.079 382.886 292.755C386.16 289.196 390.218 288.204 394.851 288.038L393.265 287.331L391.037 286.231C388.554 284.693 383.421 281.057 383.005 277.884C382.851 276.684 383.142 275.823 383.98 274.962C384.639 274.284 385.566 274.207 386.463 274.171C388.477 275.045 389.968 277.813 391.525 279.399C393.842 281.764 398.226 283 401.452 282.982H401.998L402.307 283.457C401.749 284.122 401.285 284.669 401.185 285.554C401.048 286.742 400.763 287.865 400.489 289.024C399.557 289.891 398.588 288.513 397.424 289.024C399.212 289.547 400.614 290.034 401.63 291.685C398.161 289.992 394.144 288.739 390.295 290.016C386.784 291.18 383.932 293.438 382.34 296.824L381.342 299.26Z" fill="#071647"/>
<path d="M357.685 271.712C358.944 271.807 360.002 271.843 361.071 272.573C361.772 273.684 361.766 273.964 361.796 275.288C360.174 278.788 357.233 280.95 353.734 282.406C348.061 284.776 341.876 283.784 336.387 281.491C335.228 280.736 333.808 279.964 333.25 278.627C332.781 277.504 333.018 276.708 333.464 275.633C334.682 274.879 334.996 274.813 336.434 274.748C340.278 277.13 343.753 278.057 348.322 277.653C352.766 277.261 354.946 274.89 357.679 271.706L357.685 271.712Z" fill="#071647"/>
<path d="M329.947 310.524C331.741 310.66 333.405 310.85 335.05 311.629C337.611 312.846 339.09 315.217 339.892 317.855C340.635 320.29 339.839 323.017 338.561 325.126C336.88 327.907 334.373 329.006 331.337 329.736C329.121 329.713 326.804 329.416 324.927 328.144C322.634 326.588 321.261 324.069 320.845 321.372C320.537 319.358 321.249 316.405 322.438 314.748C324.363 312.068 326.78 311.017 329.941 310.518L329.947 310.524Z" fill="#12283F"/>
<path d="M381.342 299.26L382.34 296.824C383.932 293.437 386.784 291.18 390.295 290.016C394.145 288.738 398.161 289.992 401.63 291.685C402.973 293.289 404.506 294.964 404.357 297.192L404.09 298.731C403.686 302.224 403.151 305.165 401.832 308.438C401.422 309.062 401.078 309.615 400.543 310.143C397.608 311.26 394.858 311.248 391.768 311.427C388.982 310.838 386.077 310.102 384.081 307.904C382.221 305.86 381.223 301.963 381.348 299.254L381.342 299.26Z" fill="#FEFDFC"/>
<path d="M401.826 308.444C400.513 309.044 398.82 310.221 397.406 310.381C395.624 310.589 393.402 310.607 391.946 309.437C390.247 308.064 389.915 305.908 389.629 303.876C390.758 303.359 391.958 303.282 393.034 302.599C394.121 301.909 394.762 300.917 394.988 299.652C395.333 297.668 394.881 296.301 393.675 294.774L393.378 294.406L393.83 293.699C395.154 293.158 396.568 292.749 398.018 292.98C399.872 293.277 401.945 294.721 402.931 296.307L404.09 298.737C403.686 302.23 403.151 305.171 401.832 308.444H401.826Z" fill="#0A080B"/>
<path d="M350.306 306.526L349.837 307.221C347.176 308.403 343.397 308.48 340.534 307.958C337.332 307.375 334.498 305.403 332.781 302.646C331.391 300.413 330.654 297.472 331.349 294.899C332.234 291.602 334.022 289.018 336.981 287.307C339.827 285.661 344.473 284.913 347.639 285.857C349.879 286.523 351.863 286.796 353.574 288.525C355.517 290.485 357.079 294.662 356.931 297.442C356.752 300.769 355.386 302.997 353.016 305.26L352.534 305.094C351.798 305.522 350.912 305.932 350.312 306.532L350.306 306.526Z" fill="#FEFDFC"/>
<path d="M350.306 306.525C348.126 307.351 346.575 307.5 344.247 307.369C342.945 306.555 342.743 305.997 342.042 304.624C341.223 303.02 340.183 300.394 340.765 298.594C342.09 298.648 343.308 298.678 344.431 297.87C345.494 297.109 346.516 295.808 346.593 294.454C346.73 292.22 345.423 291.471 344.181 289.95C344.977 288.804 345.934 288.002 347.36 287.782C348.964 287.526 350.93 288.34 352.184 289.291C354.108 290.758 355.671 293.646 355.92 296.087C356.319 299.907 354.916 302.26 352.528 305.082C351.792 305.51 350.906 305.92 350.306 306.52V306.525Z" fill="#0A080B"/>
<path d="M400.537 310.15L401.488 310.815L401.612 312.074C402.444 316.78 403.531 320.32 407.636 323.208C413.601 327.402 421.621 327.77 428.566 326.44C430.331 326.101 431.953 325.513 433.539 324.663L443.413 349.627L408.902 365.133L404.428 343.692L401.993 329.327L398.63 330.551C396.194 331.127 393.396 331.038 391.216 329.677C389.047 328.323 387.312 326.006 386.736 323.505L386.635 323.041C386.516 322.519 386.404 322.049 386.415 321.509C386.505 317.017 388.697 314.391 391.768 311.421C394.857 311.243 397.608 311.255 400.543 310.138L400.537 310.15Z" fill="#12283F"/>
<path d="M267.805 269.11C268.898 260.198 270.223 251.37 272.955 242.779C278.766 224.517 289.923 206.463 307.484 197.533C324.493 188.883 343.563 188.527 361.493 194.492C382.72 201.555 400.549 217.655 410.541 237.51C408.296 237.332 406.579 237.094 404.702 238.591C403.911 239.227 402.996 240.32 402.836 241.36C402.444 243.89 406.104 248.905 407.737 250.764C409.258 252.505 410.868 253.265 412.591 254.572C416.952 257.881 424.479 258.529 429.885 259.676C431.424 260.002 433.616 260.115 434.739 261.179L434.442 261.921C428.994 261.773 423 259.539 417.558 258.636C416.441 258.452 414.32 257.97 413.233 258.214C412.312 258.422 410.785 259.319 410.096 259.937C408.147 261.707 407.422 264.387 406.876 266.876C406.739 267.494 406.496 267.981 406.211 268.545C401.909 264.702 396.634 262.206 391.952 258.838C385.768 254.394 380.32 249.374 374.474 244.538C371.747 247.342 369.086 250.075 365.961 252.439C356.657 259.474 346.54 264.226 335.721 268.397C328.468 271.195 321.487 273.779 313.609 273.987C311.797 274.035 309.777 274.076 308.007 273.672L297.284 280.184L295.685 276.981C292.994 271.825 290.018 268.017 284.237 266.276C278.023 264.404 273.223 266.127 267.805 269.104V269.11Z" fill="#071647"/>
<path d="M291.616 213.146C293.618 215.297 295.329 217.685 297.397 219.8C306.706 229.341 317.661 237.665 329.032 244.622L345.803 254.216L346.1 254.406C340.593 253.099 334.878 251.84 329.567 249.85C319.479 246.071 310.086 240.279 301.775 233.441C298.793 230.987 295.234 227.91 293.078 224.684C290.452 220.745 290.755 217.602 291.616 213.146Z" fill="#6E87BC"/>
<path d="M308.007 273.678C310.057 272.306 311.97 272.276 314.34 271.872C316.954 271.427 319.562 270.969 322.135 270.292C343.956 264.535 361.487 253.42 375.431 235.674C384.063 247.651 394.228 255.725 406.727 263.294C406.763 264.922 406.228 266.579 406.205 268.248V268.545C401.897 264.702 396.628 262.207 391.94 258.838C385.756 254.394 380.308 249.374 374.462 244.538C371.735 247.342 369.074 250.075 365.949 252.44C356.645 259.474 346.528 264.226 335.71 268.397C328.456 271.195 321.475 273.779 313.597 273.987C311.785 274.035 309.766 274.076 307.995 273.672L308.007 273.678Z" fill="#12283F"/>
<path d="M500.552 469.657L580.523 469.729L602.736 469.871C605.897 469.871 609.372 469.461 612.491 469.901C614.939 470.245 617.226 471.517 618.949 473.269C621.397 475.764 623.096 479.388 622.983 482.911C622.846 487.165 621.409 491.496 620.405 495.613L614.719 518.23L600.556 575.905L587.854 628.827C586.066 636.17 584.652 643.875 582.418 651.075C581.652 653.547 580.398 655.84 578.497 657.61C577.006 659.007 575.141 660.391 573.251 661.187L573.002 661.294C570.869 662.125 567.798 661.739 565.522 661.751L548.317 661.775L492.098 661.739L441.529 661.757L414.201 661.674C413.304 661.638 412.769 661.496 411.961 661.11C408.801 659.583 406.561 656.297 405.61 652.988C404.933 650.636 405.432 648.016 405.937 645.681L421.633 583.658L438.862 517.048L445.818 490.094C446.947 485.71 447.589 480.149 449.781 476.228C451.902 472.432 455.995 470.78 459.994 469.711L500.54 469.663L500.552 469.657Z" fill="#322871"/>
<path d="M518.131 535.151C521.833 534.853 525.385 535.311 528.819 536.749C535.206 539.422 539.798 544.81 542.371 551.132C545.484 558.789 544.67 567.202 541.432 574.687C538.527 581.413 532.782 586.938 525.962 589.611C524.298 590.265 522.029 591.251 520.306 590.508C519.771 590.799 519.231 591.09 518.619 591.168C513.628 591.815 508.157 589.973 504.164 587.039C498.425 582.821 494.807 576.381 493.797 569.347C492.621 561.148 494.784 552.201 499.875 545.607C504.616 539.47 510.551 536.149 518.131 535.145V535.151Z" fill="#FEFDFC"/>
<path d="M509.28 548.304C510.016 548.286 510.818 548.25 511.549 548.387C513.824 548.815 517.674 555.76 519.249 557.958C521.292 555.397 523.425 553.063 525.801 550.799C526.805 549.849 527.655 548.839 529.015 548.435C530.103 548.654 531.172 549.058 531.891 549.961C532.746 551.037 532.729 551.744 532.693 553.027C530.174 556.794 526.401 560.21 522.95 563.121C525.13 566.085 527.72 569.436 529.241 572.781C529.847 574.117 529.307 575.252 528.813 576.547C527.774 577.593 527.287 577.967 525.855 578.127C522.837 576.143 520.455 571.497 518.423 568.527C517.561 568.794 516.753 569.893 516.088 570.547C514.11 572.495 511.977 575.109 509.565 576.446C508.436 576.47 507.658 576.47 506.725 575.674C505.911 574.979 505.472 573.945 505.549 572.888C505.78 569.596 511.496 564.921 513.872 562.633C512.185 560.097 507.521 555.285 507.283 552.397C507.123 550.443 508.097 549.605 509.28 548.304Z" fill="#12283F"/>
<path d="M281.778 313.548L288.966 309.134C289.317 315.087 290.529 320.867 292.418 326.523C293.232 328.953 294.355 331.371 294.931 333.86C301.935 352.045 313.758 366.88 331.806 375.09C333.203 375.726 335.858 376.296 337.017 377.163C337.32 377.389 337.486 378.001 337.789 378.221C338.235 378.548 339.399 378.785 339.951 378.969C343.094 380.033 346.326 380.674 349.588 381.245C353.984 381.28 358.297 381.387 362.634 380.532C377.944 377.502 389.897 368.222 398.036 355.134C400.282 351.522 401.886 347.399 404.262 343.912L404.422 343.68L408.896 365.121L443.407 349.615L449.972 346.74L500.559 469.652L460.012 469.699C454.095 469.557 448.195 469.313 443.633 473.739C439.973 477.286 439.135 481.985 437.971 486.738L435.6 496.736C435.286 498.067 434.947 499.131 434.246 500.307L422.786 545.749L414.914 576.149C406.692 572.822 399.07 569.958 390.39 573.606C381.704 577.254 373.262 582.446 365.01 586.973C362.319 588.453 354.792 593.318 352.291 593.348C350.467 593.366 347.805 592.124 346.148 591.447C344.924 590.948 343.908 590.532 342.999 589.522L324 628.892L317.019 643.329C315.95 643.359 314.156 642.2 313.116 641.707L302.708 636.936L276.9 625.554L267.335 621.324C265.541 620.528 263.45 619.809 261.977 618.496C260.842 618.609 259.499 617.688 258.495 617.213L251.705 614.171L215.81 598.368L207.451 594.821C205.77 594.108 204.047 593.568 202.609 592.409L211.491 543.206L215.643 543.147L215.62 523.786L180.224 523.732L180.325 523.548C180.948 521.754 178.792 518.682 177.93 516.93C171.597 503.99 167.272 489.893 166.453 475.444C166.72 474.315 166.357 473.08 166.251 471.927L164.843 460.384L162.478 441.022C162.062 437.749 162.021 434.22 160.838 431.131C161.682 427.964 161.278 423.954 161.308 420.657C161.498 417.995 161.581 415.221 162.27 412.637C164.979 402.525 171.354 394.802 178.703 387.661C185.416 381.144 192.581 375.613 200.565 370.729L211.936 364.509C222.897 359.857 234.179 355.913 245.811 353.287L269.658 344.637C271.138 342.682 272.255 340.365 273.395 338.203C276.847 331.65 279.366 324.83 281.433 317.73C281.713 316.483 282.372 314.742 281.796 313.554L281.778 313.548Z" fill="#74BA60"/>
<path d="M430.58 475.901L434.103 491.11C434.484 492.791 434.656 495.328 435.601 496.742C435.286 498.073 434.947 499.136 434.246 500.313L429.559 478.206L430.479 478.456L430.58 475.901Z" fill="#74BA60"/>
<path d="M265.024 546.189C258.899 542.998 251.152 541.495 244.272 541.703C237.512 541.905 230.139 544.769 225.487 549.771C224.988 550.312 224.976 550.175 224.281 550.234L223.717 549.498C226.378 545.672 232.129 542.915 236.466 541.483C245.924 538.37 256.683 540.64 265.351 544.988L265.03 546.183L265.024 546.189Z" fill="#013245"/>
<path d="M429.552 478.207L421.164 440.791C420.778 438.913 419.031 433.228 419.827 431.784C421.235 432.842 422.061 438.901 422.542 440.892L427.36 461.275C428.501 466.105 429.82 470.994 430.58 475.902L430.479 478.456L429.558 478.207H429.552Z" fill="#013245"/>
<path d="M261.834 529.198L235.29 419.54C235.724 418.886 235.765 418.958 236.544 418.768C237.963 420.241 241.51 437.339 242.318 440.642L261.989 523.102L265.405 537.687C266.04 540.521 266.86 543.462 266.997 546.367L266.254 546.688L265.03 546.177L265.351 544.983L261.834 529.186V529.198Z" fill="#013245"/>
<path d="M365.242 508.844L375.918 418.429L387.027 490.463L391.358 516.472C391.851 519.722 392.665 523.138 392.73 526.417L365.248 508.85L365.242 508.844Z" fill="#01634F"/>
<path d="M349.582 381.251C353.978 381.286 358.291 381.393 362.628 380.538C377.938 377.508 389.891 368.228 398.03 355.14C400.276 351.528 401.88 347.405 404.256 343.918L404.416 343.686L408.89 365.127L402.402 368.074L420.558 432.051L349.582 381.251Z" fill="white"/>
<path d="M365.242 508.844L392.725 526.411L422.774 545.755L414.902 576.155C406.68 572.828 399.058 569.964 390.378 573.612C381.692 577.26 373.25 582.452 364.998 586.979C362.307 588.458 354.78 593.324 352.279 593.354C350.455 593.371 347.793 592.13 346.136 591.452C344.912 590.953 343.896 590.538 342.987 589.528C344.354 587.454 345.37 585.102 346.475 582.88L324.178 572.638C327.85 565.497 331.088 558.635 337.759 553.745C340.783 551.529 344.051 549.634 347.027 547.353C355.065 541.192 360.673 533.118 363.068 523.245C364.196 518.581 364.6 513.603 365.248 508.838L365.242 508.844Z" fill="white"/>
<path d="M281.778 313.548L288.966 309.134C289.317 315.087 290.529 320.867 292.418 326.523C293.232 328.953 294.355 331.371 294.931 333.86L294.301 334.133C293.707 337.864 301.341 350.055 303.622 353.204C310.633 362.893 320.103 371.347 331.081 376.308C333.036 377.193 335.08 377.645 337.094 378.352L333.612 388.041C329.757 398.438 324.523 410.569 314.013 415.702C307.953 418.661 300.824 418.892 294.479 416.659C283.566 412.815 275.373 403.018 268.856 393.905C259.642 381.013 252.679 367.515 245.799 353.275L269.646 344.625C271.126 342.67 272.242 340.353 273.383 338.191C276.835 331.638 279.354 324.818 281.421 317.718C281.7 316.471 282.36 314.73 281.784 313.542L281.778 313.548Z" fill="#EF735D"/>
<path d="M281.778 313.548L288.966 309.134C289.317 315.087 290.529 320.867 292.418 326.523C293.232 328.953 294.355 331.371 294.931 333.86L294.301 334.133C293.707 337.864 301.341 350.055 303.623 353.204C310.633 362.893 320.103 371.347 331.082 376.308C333.036 377.193 335.08 377.645 337.094 378.352L333.612 388.041C309.884 386.318 293.054 365.222 286.893 343.71C286.162 341.149 285.467 338.506 284.98 335.892L282.978 323.665C282.835 322.584 282.811 319.311 282.283 318.538C282.057 318.212 281.712 317.992 281.427 317.718C281.706 316.471 282.366 314.73 281.79 313.542L281.778 313.548Z" fill="#12283F"/>
<defs>
<linearGradient id="paint0_linear_4046_491" x1="271.803" y1="613.874" x2="251.111" y2="679.931" gradientUnits="userSpaceOnUse">
<stop stop-color="#0E7685"/>
<stop offset="1" stop-color="#296A95"/>
</linearGradient>
</defs>
</svg>
