<svg width="566" height="773" viewBox="0 0 566 773" fill="none" xmlns="http://www.w3.org/2000/svg">
<path d="M425.532 181.015L429.789 143.054C429.789 143.054 430.397 133.971 433.202 129.263L443.698 109.448C443.698 109.448 446.405 104.348 450.996 105.211C455.567 106.074 455.057 110.37 455.057 110.37C455.057 110.37 458.941 103.288 463.708 105.466C468.495 107.663 469.221 111.704 468.044 114.941L467.161 117.845C467.161 117.845 469.535 113.666 473.282 115.451C477.049 117.217 477.107 120.336 476.48 122.455C475.852 124.574 474.734 127.085 474.734 127.085C474.734 127.085 476.833 123.985 479.854 125.574C482.875 127.163 483.679 130.361 482.6 133.539C481.482 136.737 473.969 152 472.89 154.942C472.576 155.766 467.965 160.592 466.945 163.888C464.356 172.402 462.159 188.764 462.159 188.764C457.45 206.145 439.304 206.694 428.867 196.434C425.218 192.825 424.747 188.195 425.532 181.015Z" fill="#F2B8AA"/>
<path d="M445.954 130.793C445.856 130.969 445.64 131.048 445.444 130.969C445.268 130.891 445.189 130.675 445.268 130.479L454.684 110.233C454.782 110.056 454.998 109.958 455.194 110.056C455.371 110.155 455.449 110.37 455.371 110.567L445.954 130.793ZM467.279 143.917C467.2 144.113 466.965 144.192 466.788 144.094C466.612 144.015 466.514 143.78 466.612 143.603L474.381 126.908C474.479 126.732 474.694 126.653 474.871 126.732C475.067 126.83 475.146 127.046 475.048 127.242L467.279 143.917ZM458.058 138.267C457.96 138.463 457.745 138.542 457.548 138.444C457.372 138.345 457.293 138.13 457.372 137.953L466.788 117.707C466.867 117.511 467.083 117.433 467.279 117.531C467.455 117.629 467.534 117.845 467.455 118.021L458.058 138.267Z" fill="#74BA60"/>
<path d="M421.922 122.141C425.198 120.375 429.279 121.611 431.045 124.907L441.521 144.388C443.286 147.664 442.05 151.744 438.794 153.51C435.518 155.276 431.437 154.04 429.671 150.744L419.195 131.263C417.43 127.987 418.666 123.907 421.922 122.141Z" fill="#F2B8AA"/>
<path d="M432.81 129.498C432.693 129.282 432.771 129.027 432.987 128.89C433.203 128.772 433.458 128.85 433.575 129.066L440.618 141.818C442.443 142.112 455.077 144.623 455.292 156.786C455.312 157.041 455.116 157.218 454.861 157.238C454.606 157.238 454.41 157.041 454.41 156.806C454.194 144.486 440.324 142.661 440.285 142.661L440.069 142.622L432.81 129.498Z" fill="#74BA60"/>
<path d="M247.048 579.454L233.276 723.429L233.316 724.057C228.98 725.882 224.605 727.647 222.389 728.314C217.092 729.884 213.07 726.058 213.07 726.058C213.07 726.058 206.91 720.585 202.202 716.956C200.338 715.523 198.278 715.425 196.473 715.798V711.129C195.826 706.578 191.196 705.832 191.196 705.832H171.931C176.071 673.973 186.959 567.742 186.959 567.742L247.048 579.454Z" fill="#F2B8AA"/>
<path d="M196.473 715.778C193.727 716.387 191.588 718.152 191.588 718.152L176.541 732.414C174.187 731.747 171.656 731.257 168.93 730.943C162.456 730.158 157.08 730.668 152.706 731.767C155.903 729.001 158.159 727.098 158.159 727.098C158.159 727.098 168.733 719.074 170.538 714.641C170.793 714.032 171.264 710.835 171.911 705.812H191.176C191.176 705.812 195.806 706.558 196.453 711.109V715.778H196.473Z" fill="#412884"/>
<path d="M233.316 724.058L233.826 732.042C229.883 735.044 225.567 739.359 222.977 745.245C221.153 749.404 219.034 754.74 217.013 760.076H199.338C198.827 746.343 191.098 736.417 176.542 732.415L191.588 718.153C191.588 718.153 197.513 713.307 202.221 716.917C206.93 720.546 213.09 726.019 213.09 726.019C213.09 726.019 217.111 729.845 222.408 728.275C224.586 727.648 228.961 725.882 233.316 724.058Z" fill="#322871"/>
<path d="M233.806 732.042L235.317 756.309C235.317 756.309 235.631 759.919 230.883 760.076H216.993C219.014 754.74 221.133 749.404 222.957 745.245C225.547 739.359 229.863 735.043 233.806 732.042ZM199.318 760.076H137.58C137.58 760.076 130.047 756.957 133.637 750.718C136.07 746.539 146.232 737.358 152.706 731.767C157.061 730.669 162.456 730.159 168.93 730.943C188.391 733.297 198.729 744.107 199.318 760.076Z" fill="#E2E2E2"/>
<path d="M247.048 579.454L235.317 702.026L172.284 703.066C176.64 668.264 186.959 567.742 186.959 567.742L247.048 579.454Z" fill="#1A1A1A"/>
<path d="M135.01 757.525H232.472C235.297 757.525 237.592 760.252 237.592 763.587V766.138C237.592 769.492 235.297 772.2 232.472 772.2H135.01C132.185 772.2 129.89 769.473 129.89 766.138V763.587C129.89 760.252 132.185 757.525 135.01 757.525Z" fill="#E2E2E2"/>
<path d="M271.806 332.484V447.17L252.07 695.906H160.494C160.494 695.906 148.802 694.493 152.254 681.957L205.223 334.191L271.806 332.484Z" fill="#8172DE"/>
<path d="M271.806 332.484V352.887L241.045 695.925H238.946L271.473 332.484H271.806ZM221.506 695.906H219.407L254.111 332.935L256.21 332.876L221.506 695.906ZM204.674 695.906H202.574L243.635 333.19L245.734 333.131L204.674 695.906ZM187.567 695.906H185.468L231.138 333.524L233.237 333.465L187.567 695.906ZM166.674 695.906H164.575L218.818 333.838L220.937 333.779L166.674 695.906Z" fill="#E2E2E2"/>
<path d="M271.806 332.484V378.311L198.317 379.43L205.223 334.191L271.806 332.484Z" fill="#1A1A1A"/>
<path d="M296.564 579.454L310.336 723.43L310.296 724.057C314.652 725.882 319.007 727.647 321.224 728.314C326.521 729.884 330.542 726.058 330.542 726.058C330.542 726.058 336.702 720.585 341.411 716.956C343.274 715.524 345.334 715.426 347.139 715.798V711.129C347.786 706.578 352.436 705.832 352.436 705.832H371.681C367.542 673.973 356.654 567.742 356.654 567.742L296.564 579.454Z" fill="#F2B8AA"/>
<path d="M347.139 715.779C349.885 716.387 352.024 718.152 352.024 718.152L367.071 732.415C369.425 731.748 371.955 731.257 374.682 730.943C381.156 730.159 386.532 730.669 390.906 731.767C387.709 729.001 385.453 727.098 385.453 727.098C385.453 727.098 374.879 719.074 373.074 714.641C372.819 714.033 372.348 710.835 371.7 705.813H352.455C352.455 705.813 347.806 706.558 347.158 711.11V715.779H347.139Z" fill="#412884"/>
<path d="M310.316 724.058L309.806 732.042C313.749 735.044 318.065 739.36 320.655 745.245C322.479 749.404 324.598 754.74 326.618 760.076H344.294C344.804 746.344 352.534 736.417 367.09 732.415L352.043 718.153C352.043 718.153 346.138 713.307 341.41 716.917C336.702 720.546 330.542 726.02 330.542 726.02C330.542 726.02 326.52 729.845 321.224 728.276C319.026 727.648 314.652 725.882 310.316 724.058Z" fill="#322871"/>
<path d="M309.806 732.042L308.295 756.31C308.295 756.31 307.982 759.919 312.729 760.076H326.619C324.598 754.74 322.479 749.404 320.655 745.245C318.065 739.36 313.749 735.044 309.806 732.042ZM344.294 760.076H406.032C406.032 760.076 413.565 756.957 409.975 750.719C407.542 746.54 397.38 737.359 390.906 731.768C386.551 730.669 381.156 730.159 374.682 730.944C355.221 733.298 344.883 744.107 344.294 760.076Z" fill="#E2E2E2"/>
<path d="M296.564 579.454L308.295 702.026L371.328 703.066C366.973 668.264 356.654 567.742 356.654 567.742L296.564 579.454Z" fill="#1A1A1A"/>
<path d="M311.16 757.526H408.621C411.446 757.526 413.742 760.253 413.742 763.588V766.138C413.742 769.493 411.446 772.2 408.621 772.2H311.16C308.335 772.2 306.039 769.473 306.039 766.138V763.588C306.039 760.253 308.335 757.526 311.16 757.526Z" fill="#E2E2E2"/>
<path d="M271.806 332.484V447.171L291.542 695.906H383.118C383.118 695.906 394.81 694.494 391.358 681.958L338.409 334.191L271.806 332.484Z" fill="#8172DE"/>
<path d="M271.806 332.484V352.887L302.547 695.926H304.647L272.14 332.484H271.806ZM322.106 695.906H324.206L289.501 332.936L287.402 332.877L322.106 695.906ZM338.939 695.906H341.038L299.977 333.191L297.878 333.132L338.939 695.906ZM356.065 695.906H358.164L312.494 333.524L310.395 333.465L356.065 695.906ZM376.939 695.906H379.057L324.814 333.838L322.695 333.779L376.939 695.906Z" fill="#E2E2E2"/>
<path d="M271.806 332.484V378.312L345.295 379.43L338.409 334.191L271.806 332.484Z" fill="#1A1A1A"/>
<path d="M220.172 251.6L151.136 309.178C151.136 309.178 141.602 317.418 127.497 309.276C113.391 301.155 114.255 281.321 121.592 274.141L194.766 215.522L220.172 251.6Z" fill="#E2E2E2"/>
<path d="M220.172 251.6L202.83 266.058L178.601 228.47L194.767 215.522L220.172 251.6Z" fill="#1A1A1A"/>
<path d="M251.796 228.136L239.142 188.449C239.142 188.449 225.331 187.645 217.582 191.451C209.813 195.257 179.994 222.663 179.994 222.663L209.715 267.039L248.853 237.063C248.833 237.063 253.365 234.708 251.796 228.136Z" fill="#322871"/>
<path d="M228.058 94.8919C228.058 94.8919 220.034 95.6178 218.916 99.2471C217.798 102.876 221.643 110.724 232.197 119.297C242.732 127.87 272.041 138.973 287.912 141.072C303.764 143.172 322.459 144.78 323.362 136.188L317.555 127.261L289.992 99.4825L268.628 92.2239L228.058 94.8919Z" fill="#322871"/>
<path d="M268.628 104.25L297.859 102.15C297.859 102.15 298.82 108.428 303.94 110.449C309.061 112.489 313.475 117.649 310.022 125.594C306.569 133.539 308.138 135.854 312.023 137.718C315.907 139.562 318.968 145.271 315.201 151.941C311.434 158.611 313.906 164.202 318.968 166.615H223.232C223.232 166.615 232.276 160.769 231.903 154.001C231.55 147.213 234.571 142.897 240.476 141.543C246.401 140.19 248.382 136.227 247.872 129.812C247.382 123.397 253.071 119.571 257.367 119.944C261.683 120.317 265.195 116.707 264.901 112.548C264.587 108.369 266.019 104.897 268.628 104.25Z" fill="#E97265"/>
<path d="M286.775 188.469C286.775 188.469 284.891 193.746 270.806 193.746C259.466 193.746 256.916 188.469 256.916 188.469V129.478H286.775V188.469Z" fill="#EEBAA7"/>
<path d="M256.896 173.815V129.458H285.578C284.793 163.908 266.293 171.951 256.896 173.815Z" fill="#1A1A1A"/>
<path d="M289.325 143.368C282.105 156.315 268.726 167.066 255.602 167.007C236.317 166.929 232.237 151.019 232.315 131.734C232.59 61.8553 322.401 84.0431 289.325 143.368Z" fill="#EEBAA7"/>
<path d="M229.118 138.071C229.098 139.268 231.236 140.229 233.904 140.268C236.572 140.248 238.691 139.326 238.652 138.13C238.671 136.933 236.533 135.972 233.865 135.933C231.256 135.893 229.137 136.874 229.118 138.071Z" fill="#F58D59"/>
<path d="M250.305 134.049C250.324 133.833 250.521 133.696 250.717 133.716C250.933 133.735 251.07 133.932 251.05 134.128C250.952 135.011 250.717 135.913 250.207 136.796C249.775 137.502 249.167 138.169 248.284 138.738C247.48 139.268 246.715 140.19 246.381 141.229C246.244 141.7 246.165 142.171 246.205 142.642C246.244 143.113 246.381 143.584 246.676 144.015C247.166 144.8 248.108 145.506 249.638 146.016C249.834 146.075 249.932 146.291 249.873 146.487C249.814 146.683 249.599 146.801 249.402 146.742C247.696 146.173 246.617 145.349 246.028 144.427C245.675 143.878 245.479 143.289 245.44 142.701C245.381 142.112 245.479 141.543 245.655 140.974C246.048 139.758 246.931 138.679 247.872 138.091C248.637 137.58 249.187 137.012 249.559 136.364C250.011 135.638 250.226 134.814 250.305 134.049Z" fill="#1A1A1A"/>
<path d="M232.217 114.981L272.002 116.884C272.002 116.884 274.592 116.884 275.161 114.176C275.71 111.469 277.064 105.113 283.106 104.564C283.106 104.564 271.669 122.671 284.616 131.362C297.564 140.052 302.685 116.687 297.859 102.131C289.678 77.3339 234.552 78.0598 229.843 112.607C229.843 112.607 228.352 115.589 232.217 114.981Z" fill="#E97265"/>
<path d="M277.554 120.983C277.633 121.18 277.534 121.395 277.338 121.474C277.162 121.552 276.926 121.454 276.848 121.258C276.848 121.238 275.082 116.981 270.021 118.257C269.805 118.315 269.609 118.178 269.55 117.982C269.491 117.766 269.628 117.57 269.825 117.511C275.533 116.099 277.554 120.964 277.554 120.983Z" fill="#1A1A1A"/>
<path d="M235.572 121.062C235.493 121.239 235.278 121.337 235.081 121.258C234.885 121.18 234.807 120.964 234.866 120.768C234.885 120.748 236.886 115.883 242.575 117.315C242.791 117.374 242.889 117.57 242.85 117.786C242.811 118.002 242.595 118.1 242.399 118.061C237.337 116.785 235.572 121.062 235.572 121.062Z" fill="#1A1A1A"/>
<path d="M237.573 128.026C237.592 130.557 238.907 132.656 240.574 132.637C242.242 132.617 243.537 130.577 243.576 128.046C243.556 125.515 242.242 123.436 240.574 123.436C238.907 123.436 237.573 125.496 237.573 128.026Z" fill="#1A1A1A"/>
<path d="M235.572 124.613C235.434 124.456 235.199 124.436 235.042 124.574C234.866 124.711 234.866 124.947 234.983 125.103C235.003 125.123 236.651 127.026 239.319 127.163L239.064 126.379C236.906 126.163 235.572 124.613 235.572 124.613Z" fill="#1A1A1A"/>
<path d="M267.314 128.066C267.333 130.596 268.648 132.676 270.315 132.676C271.983 132.656 273.277 130.616 273.317 128.085C273.297 125.554 271.983 123.455 270.315 123.475C268.648 123.495 267.372 125.515 267.314 128.066Z" fill="#1A1A1A"/>
<path d="M265.842 124.378C265.705 124.221 265.469 124.201 265.312 124.338C265.156 124.476 265.136 124.711 265.273 124.868C265.273 124.888 266.921 126.791 269.589 126.928L269.334 126.143C267.176 125.908 265.862 124.397 265.842 124.378Z" fill="#1A1A1A"/>
<path d="M247.362 151.862C247.166 151.862 247.009 151.705 247.009 151.509C246.989 151.293 247.146 151.136 247.362 151.136C251.404 152.509 255.504 152.019 259.663 150.783C259.859 150.783 260.016 150.94 260.016 151.136C260.035 151.332 259.878 151.489 259.663 151.489C259.27 159.199 249.481 160.768 247.362 151.862Z" fill="#1A1A1A"/>
<path d="M218.916 99.247C218.916 99.247 222.33 95.4803 228.98 99.3843C235.631 103.288 240.221 107.938 250.678 105.878C261.114 103.818 267.059 105.996 271.669 110.763C276.299 115.549 281.242 115.196 287.01 113.666C292.778 112.116 297.564 116.138 299.134 120.258C300.684 124.378 302.626 125.849 308.178 125.515C313.71 125.201 316.143 126.202 318.281 130.891C320.419 135.599 323.362 136.168 323.362 136.168C323.362 136.168 315.593 119.532 308.217 112.764L307.746 99.757C307.746 99.757 306.334 92.4396 301.39 88.3198C296.446 84.2 273.336 72.5078 268.451 71.5269C263.586 70.5656 256.74 74.1949 254.032 76.3921C251.325 78.5893 245.518 86.5738 245.518 86.5738C245.518 86.5738 241.83 89.0849 239.986 89.7127C238.122 90.3208 221.643 95.3822 221.643 95.3822C221.643 95.3822 218.014 97.6775 218.916 99.247Z" fill="#E2E2E2"/>
<path d="M214.895 193.413L212.658 214.6L195.963 372.936H347.335C347.335 372.936 354.221 371.367 352.965 366.05L327.992 188.587L304.725 181.917L240.869 182.505C233.669 185.625 224.272 189.627 214.895 193.413Z" fill="#74BA60"/>
<path d="M305 181.289L298.741 179.445L246.44 180.034C244.773 180.779 242.87 181.603 240.79 182.505L240.692 183.879C240.692 183.879 239.123 208.48 269.217 207.224C290.894 206.341 301.017 190.235 305 181.289Z" fill="#E2E2E2"/>
<path d="M298.742 179.445C286.775 175.953 261.173 173.579 246.499 180.034L246.362 182.074C246.362 182.074 245.087 202.025 269.511 201.025C287.5 200.26 295.681 186.566 298.742 179.445Z" fill="#EEBAA7"/>
<path d="M295.681 178.641V504.18C295.681 504.18 294.7 510.458 303.116 510.458C311.532 510.458 304.372 510.321 304.372 510.321H367.561L373.839 510.34L331.758 193.491C331.758 193.491 328.874 188.43 326.52 187.645C324.166 186.861 295.681 178.641 295.681 178.641Z" fill="#322871"/>
<path d="M245.891 179.308L218.622 500.649C218.622 500.649 216.896 508.594 210.991 507.692L174.953 504.357L212.501 196.924C213.835 192.177 219.014 190.863 222.075 189.529L245.891 179.308Z" fill="#322871"/>
<path d="M209.578 214.561C209.598 214.326 209.813 214.169 210.049 214.188C210.284 214.208 210.441 214.424 210.402 214.659L199.514 309.041C199.494 309.276 199.298 309.433 199.063 309.414C198.827 309.394 198.671 309.178 198.69 308.963L209.578 214.561Z" fill="#1A1A1A"/>
<path d="M343.235 246.911L426.729 280.183C426.729 280.183 438.362 285.048 449.23 272.944C460.099 260.84 453.134 242.242 443.934 237.71L356.163 204.713L343.235 246.911Z" fill="#E2E2E2"/>
<path d="M343.235 246.911L359.714 253.463L374.172 211.481L356.183 204.713L343.235 246.911Z" fill="#1A1A1A"/>
<path d="M299.389 230.196L297.25 190.097L303.999 188.194C303.999 188.194 316.751 185.036 325.128 187.115C333.524 189.215 373.662 201.593 373.662 201.593L353.515 255.209L306.628 239.142L304.156 238.299C304.176 238.299 299.252 236.965 299.389 230.196Z" fill="#322871"/>
<path d="M353.652 254.817C353.868 254.895 353.986 255.131 353.907 255.346C353.848 255.562 353.593 255.68 353.397 255.602L306.51 239.534C306.294 239.456 306.177 239.221 306.255 239.005C306.334 238.789 306.569 238.691 306.785 238.75L353.652 254.817Z" fill="#1A1A1A"/>
<path d="M419.725 230.354L424.394 190.627L426.827 169.832L464.022 178.582L454.743 257.073C454.743 257.073 451.094 270.727 423.296 266.882L416.174 251.717L419.725 230.354Z" fill="#E2E2E2"/>
<path d="M417.528 240.986C417.489 241.241 417.665 241.457 417.92 241.496C418.156 241.516 418.371 241.359 418.411 241.104L427.2 170.695C427.219 170.44 427.062 170.225 426.807 170.205C426.552 170.166 426.336 170.342 426.317 170.597L417.528 240.986Z" fill="#1A1A1A"/>
<path d="M151.45 263.88L146.781 224.154L144.348 203.359L107.133 212.109L116.432 290.6C116.432 290.6 120.081 304.254 147.88 300.409L155.001 285.244L151.45 263.88Z" fill="#E2E2E2"/>
<path d="M153.667 274.513C153.687 274.768 153.53 274.984 153.275 275.004C153.02 275.043 152.804 274.866 152.784 274.631L143.995 204.222C143.976 203.967 144.133 203.751 144.388 203.732C144.623 203.693 144.859 203.869 144.878 204.105L153.667 274.513Z" fill="#1A1A1A"/>
<path d="M143.838 204.693L141.543 166.576C141.543 166.576 141.406 157.473 138.836 152.627L129.38 132.283C129.38 132.283 126.947 127.065 122.318 127.693C117.688 128.321 118.002 132.637 118.002 132.637C118.002 132.637 114.47 125.358 109.605 127.281C104.72 129.223 103.779 133.225 104.779 136.521L105.525 139.464C105.525 139.464 103.367 135.148 99.5412 136.737C95.7157 138.326 95.4803 141.425 95.9903 143.564C96.52 145.722 97.4813 148.272 97.4813 148.272C97.4813 148.272 95.5588 145.074 92.4591 146.506C89.3595 147.919 88.3786 151.058 89.3203 154.314C90.2423 157.551 96.9712 173.187 97.9129 176.169C98.1679 177.012 102.543 182.054 103.386 185.409C105.544 194.06 106.878 210.5 106.878 210.5C110.056 226.626 146.448 223.821 143.838 204.693Z" fill="#EEBAA7"/>
<path d="M126.045 153.49C126.123 153.687 126.339 153.765 126.516 153.706C126.712 153.628 126.79 153.412 126.732 153.235L118.355 132.519C118.276 132.323 118.061 132.244 117.864 132.303C117.688 132.382 117.59 132.597 117.649 132.793L126.045 153.49ZM104.053 165.516C104.132 165.693 104.348 165.791 104.544 165.732C104.72 165.653 104.818 165.438 104.74 165.242L97.8541 148.174C97.7756 147.978 97.5598 147.899 97.3636 147.958C97.1871 148.037 97.089 148.252 97.1478 148.449L104.053 165.516ZM113.588 160.317C113.666 160.514 113.882 160.592 114.078 160.533C114.255 160.455 114.353 160.239 114.294 160.043L105.917 139.346C105.839 139.15 105.623 139.071 105.446 139.13C105.25 139.209 105.172 139.424 105.23 139.601L113.588 160.317Z" fill="#74BA60"/>
<path d="M150.489 146.075C147.311 144.152 143.172 145.172 141.249 148.351L129.792 167.262C127.87 170.44 128.87 174.599 132.048 176.522C135.226 178.444 139.366 177.424 141.288 174.246L152.745 155.335C154.668 152.156 153.667 148.017 150.489 146.075Z" fill="#EEBAA7"/>
<path d="M139.228 152.863C139.366 152.647 139.287 152.392 139.091 152.255C138.875 152.117 138.62 152.196 138.483 152.392L130.793 164.751C128.968 164.967 116.217 166.811 115.373 178.955C115.353 179.21 115.549 179.406 115.765 179.425C116.02 179.445 116.236 179.249 116.236 179.013C117.08 166.713 131.028 165.614 131.067 165.614L131.283 165.595L139.228 152.863Z" fill="#74BA60"/>
<path d="M265.607 112.979C265.607 112.979 273.709 115.118 275.259 116.256C276.789 117.374 277.966 121.003 277.966 121.003L277.299 131.067C277.299 131.067 275.396 139.326 264.999 139.13C254.601 138.954 251.992 138.757 251.992 138.757C251.992 138.757 249.304 136.972 248.049 136.894C246.793 136.796 246.165 138.345 246.165 138.345L233.865 138.738C233.865 138.738 229.51 138.542 227.725 136.874C227.332 136.482 225.469 133.421 225.684 132.342C226.351 128.693 229.706 124.436 229.706 124.436L234.375 117.649L265.607 112.979Z" fill="#322871"/>
<path d="M276.436 117.668C274.533 117.668 272.787 121.494 272.551 126.202C272.316 130.91 273.67 134.736 275.573 134.736C277.476 134.736 279.222 130.91 279.457 126.202C279.692 121.494 278.339 117.668 276.436 117.668Z" fill="#8172DE"/>
<path d="M280.202 121.631L278.417 120.101L276.181 120.081C276.181 120.081 275.592 120.16 275.455 121.278L274.827 131.538C274.827 131.538 274.925 132.558 275.494 132.774C276.083 132.99 276.612 132.872 276.612 132.872L278.829 132.107L279.457 131.479L280.202 121.631Z" fill="#322871"/>
<path d="M294.406 131.891C294.406 131.891 293.209 138.228 292.915 138.973C292.64 139.719 291.954 140.15 291.954 140.15C291.954 140.15 286.814 134.52 279.104 131.774L280.144 122.141C280.144 122.141 287.893 124.221 294.092 130.695L294.406 131.891Z" fill="#322871"/>
<path d="M292.935 138.973C292.66 139.719 291.973 140.15 291.973 140.15C291.973 140.15 286.833 134.52 279.124 131.774L279.3 130.204C287.128 132.617 292.935 138.973 292.935 138.973Z" fill="#8172DE"/>
<path d="M273.022 118.983L271.414 131.773C271.414 131.773 269.177 136.462 265.352 136.403C261.526 136.364 227.156 136.442 227.156 136.442L225.527 135.638L223.958 132.813L258.074 111.881L266.548 112.214C269.315 112.528 273.395 114.529 273.022 118.983Z" fill="#8172DE"/>
<path d="M265.764 112.567C265.764 112.567 269.609 114.078 269.413 118.571C269.197 123.063 267.706 129.929 267.706 129.929C267.706 129.929 266.352 135.226 262.35 135.501L228.097 135.363C228.097 135.363 223.958 134.912 223.664 131.675L224.409 118.139C224.409 118.139 224.86 113.882 229.039 112.979C233.237 112.057 263.704 111.842 263.704 111.842L265.764 112.567Z" fill="#E2E2E2"/>
<path d="M261.507 120.964L229.039 121.572C227.685 121.592 226.43 122.749 226.253 124.103C226.057 125.456 227.018 126.535 228.372 126.496L260.84 125.908C262.193 125.888 263.449 124.711 263.625 123.357C263.802 122.004 262.86 120.944 261.507 120.964Z" fill="#322871"/>
<path d="M276.004 138.189C275.965 139.405 278.123 140.347 280.791 140.386C283.459 140.366 285.578 139.444 285.539 138.247C285.578 137.051 283.42 136.109 280.752 136.07C278.143 136.07 276.024 136.972 276.004 138.189Z" fill="#F58D59"/>
<path d="M305.019 138.542C303.312 144.917 298.29 150.391 291.973 148.684C285.597 146.977 283.538 141.367 285.225 134.991C286.951 128.615 291.757 123.985 298.133 125.692C304.509 127.399 306.726 132.205 305.019 138.542Z" fill="#EEBAA7"/>
<path d="M301.998 136.933C301.959 137.11 301.782 137.227 301.606 137.188C301.429 137.149 301.311 136.972 301.351 136.796C301.547 135.932 301.488 135.187 301.233 134.579C301.037 134.128 300.743 133.774 300.37 133.539C299.997 133.304 299.546 133.186 299.036 133.225C298.408 133.284 297.741 133.539 297.054 134.108C296.682 134.402 296.309 134.775 295.956 135.226C295.583 135.677 295.21 136.187 294.877 136.776C294.661 137.129 294.445 137.482 294.269 137.855C294.092 138.208 293.955 138.542 293.817 138.856C293.229 140.366 293.386 141.641 293.935 142.465C294.171 142.838 294.484 143.132 294.818 143.309C295.151 143.485 295.563 143.583 295.956 143.583C296.721 143.564 297.545 143.113 298.173 142.151C298.271 141.994 298.467 141.955 298.624 142.053C298.8 142.151 298.84 142.348 298.722 142.504C297.976 143.701 296.956 144.231 295.975 144.25C295.465 144.27 294.955 144.152 294.504 143.897C294.072 143.642 293.66 143.289 293.366 142.818C292.719 141.818 292.523 140.346 293.19 138.6C293.327 138.247 293.504 137.894 293.68 137.522C293.857 137.149 294.072 136.796 294.308 136.403C294.681 135.795 295.053 135.246 295.465 134.775C295.858 134.304 296.25 133.892 296.662 133.559C297.447 132.931 298.271 132.597 299.016 132.539C299.664 132.48 300.252 132.637 300.743 132.951C301.233 133.245 301.625 133.716 301.88 134.324C302.116 135.05 302.214 135.932 301.998 136.933Z" fill="#1A1A1A"/>
<path d="M300.448 138.247C300.507 138.424 300.429 138.6 300.252 138.679C300.076 138.738 299.879 138.659 299.821 138.463C299.801 138.463 298.408 134.559 294.857 136.698C294.7 136.796 294.504 136.737 294.386 136.58C294.288 136.423 294.347 136.227 294.504 136.129C298.761 133.559 300.448 138.228 300.448 138.247Z" fill="#1A1A1A"/>
<path d="M157.963 426.12H254.503C257.21 426.12 259.408 428.337 259.408 431.025V482.836C259.408 485.543 257.191 487.74 254.503 487.74H157.963C155.256 487.74 153.059 485.523 153.059 482.836V431.025C153.059 428.337 155.256 426.12 157.963 426.12Z" fill="#322871"/>
<path d="M431.005 196.571H516.108C519.482 196.571 522.229 199.259 522.229 202.516V216.444C522.229 219.72 519.482 222.388 516.108 222.388H442.776C439.421 222.388 436.675 219.72 436.675 216.444V202.516C436.675 202.378 436.675 202.241 436.694 202.084L431.005 196.571Z" fill="#322871"/>
<path d="M513.675 205.831H447.347V204.007H513.675V205.831Z" fill="white"/>
<path d="M513.675 212.756H473.655V210.932H513.675V212.756Z" fill="white"/>
<path d="M402.736 182.427C410.524 180.661 418.313 185.35 420.137 192.942C421.962 200.515 417.116 208.107 409.328 209.873C401.559 211.638 393.771 206.949 391.926 199.357C390.122 191.765 394.948 184.193 402.736 182.427Z" fill="#8172DE"/>
<path d="M398.852 194.06C398.852 197.906 402.069 201.044 406.012 201.044C409.955 201.044 413.192 197.906 413.192 194.06C413.192 190.215 409.975 187.076 406.012 187.076C402.049 187.076 398.852 190.196 398.852 194.06Z" fill="#322871"/>
<path d="M404.913 201.613H407.15C410.387 201.613 413.133 203.595 414.193 206.4C412.761 207.342 411.113 208.068 409.327 208.46C405.227 209.402 401.108 208.519 397.871 206.38C398.93 203.595 401.676 201.613 404.913 201.613Z" fill="#322871"/>
<path d="M401.873 190.196C406.758 192.295 410.171 190.196 410.171 190.196C409.661 191.588 409.524 193.943 411.799 197.16C411.858 197.18 411.917 197.18 411.976 197.18C411.976 200.377 409.308 202.947 406.032 202.947C402.756 202.947 400.088 200.358 400.088 197.18C400.146 197.18 400.186 197.18 400.264 197.16C402.54 193.943 402.383 191.608 401.873 190.196Z" fill="white"/>
<path d="M408.347 197.062V202.005C408.347 203.241 407.307 204.262 406.032 204.262C404.757 204.262 403.717 203.261 403.717 202.005V197.062H408.347Z" fill="white"/>
<path d="M410.269 196.807C410.269 197.748 411.054 198.494 412.015 198.494C412.976 198.494 413.761 197.748 413.761 196.807C413.761 195.865 412.996 195.12 412.015 195.12C411.034 195.12 410.269 195.865 410.269 196.807Z" fill="white"/>
<path d="M398.302 196.807C398.302 197.748 399.067 198.494 400.029 198.494C400.99 198.494 401.775 197.748 401.775 196.807C401.775 195.865 401.01 195.12 400.029 195.12C399.048 195.12 398.302 195.865 398.302 196.807Z" fill="white"/>
<path d="M514.695 234.944H437.773C434.419 234.944 431.653 237.612 431.653 240.888V265.077C431.653 268.353 434.399 271.021 437.773 271.021H514.695C518.05 271.021 520.796 268.353 520.796 265.077V240.908C520.796 237.612 518.05 234.944 514.695 234.944Z" fill="#8172DE"/>
<path d="M426.003 234.944H441.011L434.458 243.164L426.003 234.944Z" fill="#8172DE"/>
<path d="M439.284 245.047H509.222V243.242H439.284V245.047Z" fill="#322871"/>
<path d="M439.284 251.972H509.222V250.167H439.284V251.972Z" fill="#322871"/>
<path d="M439.284 260.173H496.411V258.368H439.284V260.173Z" fill="#322871"/>
<path d="M409.602 221.663C401.814 219.877 394.026 224.586 392.201 232.178C390.377 239.75 395.203 247.343 402.991 249.108C410.779 250.874 418.568 246.185 420.392 238.593C422.217 231.001 417.371 223.428 409.602 221.663Z" fill="#8172DE"/>
<path d="M399.322 231.687C399.362 231.511 399.42 231.354 399.46 231.177V231.158C400.382 228.333 403.089 226.273 406.306 226.273C410.269 226.273 413.467 229.412 413.467 233.257C415.213 245.4 406.483 243.438 406.483 243.438C406.483 243.438 399.185 244.164 398.596 239.986C398.126 236.651 398.969 233.002 399.322 231.687Z" fill="#322871"/>
<path d="M407.405 240.849H405.169C401.932 240.849 399.185 242.83 398.126 245.616C399.558 246.577 401.186 247.284 402.971 247.696C407.072 248.618 411.191 247.754 414.428 245.616C413.388 242.83 410.642 240.849 407.405 240.849Z" fill="#322871"/>
<path d="M410.446 229.432L400.519 236.396C400.46 236.416 400.402 236.416 400.343 236.416C400.362 239.613 403.011 242.183 406.287 242.183C409.563 242.183 412.231 239.594 412.231 236.416C412.172 236.396 412.133 236.396 412.055 236.396C409.779 233.179 409.936 230.844 410.446 229.432Z" fill="white"/>
<path d="M403.972 236.298V241.241C403.972 242.477 405.012 243.497 406.287 243.497C407.562 243.497 408.602 242.497 408.602 241.241V236.298H403.972Z" fill="white"/>
<path d="M402.03 236.043C402.03 236.965 401.265 237.73 400.284 237.73C399.303 237.73 398.538 236.965 398.538 236.043C398.538 235.121 399.322 234.356 400.284 234.356C401.245 234.356 402.03 235.101 402.03 236.043Z" fill="white"/>
<path d="M414.036 236.043C414.036 236.965 413.251 237.73 412.29 237.73C411.329 237.73 410.544 236.965 410.544 236.043C410.544 235.121 411.329 234.356 412.29 234.356C413.251 234.356 414.036 235.101 414.036 236.043Z" fill="white"/>
<path d="M398.95 320.223H503.827C511.812 320.223 518.344 326.756 518.344 334.74V334.76C518.344 342.744 511.812 349.277 503.827 349.277H398.95C390.965 349.277 384.432 342.744 384.432 334.76V334.74C384.432 326.756 390.965 320.223 398.95 320.223Z" fill="#8172DE"/>
<path d="M399.401 324.029C405.306 324.029 410.112 328.835 410.112 334.74C410.112 340.645 405.306 345.471 399.401 345.471C393.496 345.471 388.67 340.665 388.67 334.74C388.67 328.816 393.457 324.029 399.401 324.029Z" fill="#74BA60"/>
<path d="M398.95 353.534H503.827C511.812 353.534 518.344 360.067 518.344 368.052C518.344 376.036 511.812 382.569 503.827 382.569H398.95C390.965 382.569 384.432 376.056 384.432 368.052C384.432 360.067 390.965 353.534 398.95 353.534Z" fill="#8172DE"/>
<path d="M399.401 357.321C405.306 357.321 410.112 362.127 410.112 368.032C410.112 373.937 405.306 378.763 399.401 378.763C393.496 378.763 388.67 373.957 388.67 368.032C388.67 362.107 393.457 357.321 399.401 357.321Z" fill="#74BA60"/>
<path d="M417.508 328.227H440.245C441.54 328.227 442.58 329.286 442.58 330.581C442.58 331.876 441.54 332.935 440.245 332.935H417.508C416.213 332.935 415.154 331.876 415.154 330.581C415.154 329.286 416.213 328.227 417.508 328.227Z" fill="white"/>
<path d="M417.508 336.565H502.689C503.984 336.565 505.043 337.624 505.043 338.919C505.043 340.214 503.984 341.273 502.689 341.273H417.508C416.213 341.273 415.154 340.214 415.154 338.919C415.154 337.624 416.213 336.565 417.508 336.565Z" fill="white"/>
<path d="M417.508 361.538H440.245C441.54 361.538 442.58 362.598 442.58 363.892C442.58 365.187 441.54 366.247 440.245 366.247H417.508C416.213 366.247 415.154 365.187 415.154 363.892C415.154 362.598 416.213 361.538 417.508 361.538Z" fill="white"/>
<path d="M417.508 369.856H502.689C503.984 369.856 505.043 370.916 505.043 372.211C505.043 373.505 503.984 374.565 502.689 374.565H417.508C416.213 374.565 415.154 373.505 415.154 372.211C415.154 370.916 416.213 369.856 417.508 369.856Z" fill="white"/>
<path d="M318.046 400.146H487.015C491.232 400.146 494.666 403.599 494.666 407.797V488.506C494.666 492.704 491.213 496.157 487.015 496.157H318.046C313.847 496.157 310.395 492.723 310.395 488.506V407.797C310.414 403.599 313.847 400.146 318.046 400.146Z" fill="#E2E2E2"/>
<path d="M347.492 418.626H354.613C356.026 418.626 357.046 419.843 357.046 421.059C357.046 422.491 356.045 423.511 354.613 423.511H347.492C346.079 423.511 345.059 422.491 345.059 421.059C345.059 419.843 346.06 418.626 347.492 418.626Z" fill="#322871"/>
<path d="M362.323 418.626H371.465C372.681 418.626 373.682 419.843 373.682 421.059C373.682 422.491 372.681 423.511 371.465 423.511H362.323C360.911 423.511 359.89 422.491 359.89 421.059C359.871 419.843 360.891 418.626 362.323 418.626Z" fill="#8172DE"/>
<path d="M347.806 429.397H373.152C374.094 429.397 374.898 428.592 374.898 427.768C374.898 426.728 374.094 426.12 373.152 426.12H347.806C346.845 426.12 346.06 426.728 346.06 427.768C346.06 428.592 346.845 429.397 347.806 429.397Z" fill="#322871"/>
<path d="M334.23 416.096C338.821 416.096 342.45 419.725 342.45 424.198C342.45 428.671 338.821 432.3 334.23 432.3C329.64 432.3 326.128 428.671 326.128 424.198C326.128 419.725 329.757 416.096 334.23 416.096Z" fill="#74BA60"/>
<path d="M394.536 422.158L407.797 439.676L414.722 434.458H424.571L440.383 425.316H457.548L467.141 419.725L467.887 420.941L457.921 426.65H440.755L424.826 435.89H415.213L407.562 441.619L393.437 423.001L394.536 422.158Z" fill="#322871"/>
<path d="M391.456 479.874L399.205 458.019L407.111 479.874H391.456Z" fill="#8172DE"/>
<path d="M404.482 479.874L412.368 449.799L420.118 479.874H404.482Z" fill="#322871"/>
<path d="M416.704 479.874L424.473 463.748L432.222 479.874H416.704Z" fill="#8172DE"/>
<path d="M438.558 479.874L444.914 463.748L451.271 479.874H438.558Z" fill="#8172DE"/>
<path d="M447.563 479.874L455.292 456.312L463.061 479.874H447.563Z" fill="#322871"/>
<path d="M394.045 419.843L396.713 422.511L394.045 425.199L391.377 422.511L394.045 419.843Z" fill="#8172DE"/>
<path d="M407.797 436.989L410.465 439.677L407.797 442.364L405.227 439.677L407.797 436.989Z" fill="#8172DE"/>
<path d="M415.232 432.594L417.9 435.282L415.232 437.95L412.545 435.282L415.232 432.594Z" fill="#8172DE"/>
<path d="M424.904 432.398L427.572 435.086L424.904 437.754L422.354 435.086L424.904 432.398Z" fill="#8172DE"/>
<path d="M440.795 423.923L443.443 426.591L440.795 429.279L438.127 426.591L440.795 423.923Z" fill="#74BA60"/>
<path d="M458.117 423.295L460.805 425.963L458.117 428.651L455.449 425.963L458.117 423.295Z" fill="#8172DE"/>
<path d="M466.808 417.528L469.476 420.215L466.808 422.884L464.258 420.215L466.808 417.528Z" fill="#8172DE"/>
<path d="M5.63034 34.2725H157.512C160.612 34.2725 163.142 36.8228 163.142 39.9224V140.464C163.142 143.544 160.612 146.095 157.512 146.095H5.63034C2.55033 146.095 0 143.564 0 140.464V39.9224C0 36.8228 2.53071 34.2725 5.63034 34.2725Z" fill="#EBF2FC"/>
<path d="M115.432 106.133L72.959 89.1438L42.669 111.626L17.1853 95.3431V124.26H139.993V93.5186L115.432 106.133Z" fill="white"/>
<path d="M139.993 116.923L117.727 92.577L90.6347 116.687L66.5439 99.2471L41.9823 121.278L29.3483 101.994L17.4207 84.1021V124.26H115.432L139.993 124.495V116.923Z" fill="#74BA60"/>
<path d="M146.193 123.573H17.8719V70.0947H16.9498V124.731H146.193V123.573Z" fill="#74BA60"/>
<path d="M21.9916 130.694H30.4862C31.4082 130.694 32.0948 131.381 32.0948 132.303C32.0948 133.225 31.4082 133.912 30.4862 133.912H21.9916C21.0696 133.912 20.3829 133.225 20.3829 132.303C20.4026 131.381 21.0892 130.694 21.9916 130.694Z" fill="#8172DE"/>
<path d="M43.5713 130.694H52.3013C53.2233 130.694 53.91 131.381 53.91 132.303C53.91 133.225 53.2233 133.912 52.3013 133.912H43.5713C42.6493 133.912 41.9626 133.225 41.9626 132.303C41.9823 131.381 42.6689 130.694 43.5713 130.694Z" fill="#322871"/>
<path d="M65.3864 130.694H73.8613C74.7834 130.694 75.47 131.381 75.47 132.303C75.47 133.225 74.7834 133.912 73.8613 133.912H65.3864C64.4643 133.912 63.7777 133.225 63.7777 132.303C63.7777 131.381 64.4643 130.694 65.3864 130.694Z" fill="#322871"/>
<path d="M86.9662 130.694H95.4608C96.3632 130.694 97.0694 131.381 97.0694 132.303C97.0694 133.225 96.3632 133.912 95.4608 133.912H86.9662C86.0442 133.912 85.3575 133.225 85.3575 132.303C85.3575 131.381 86.0442 130.694 86.9662 130.694Z" fill="#322871"/>
<path d="M108.546 130.694H117.256C118.178 130.694 118.865 131.381 118.865 132.303C118.865 133.225 118.178 133.912 117.256 133.912H108.546C107.859 133.912 106.937 133.225 106.937 132.303C106.937 131.381 107.859 130.694 108.546 130.694Z" fill="#8172DE"/>
<path d="M130.341 130.694H138.836C139.758 130.694 140.444 131.381 140.444 132.303C140.444 133.225 139.738 133.912 138.836 133.912H130.341C129.419 133.912 128.733 133.225 128.733 132.303C128.733 131.381 129.419 130.694 130.341 130.694Z" fill="#8172DE"/>
<path d="M27.2885 67.3483H41.0406V64.8176H27.2885V67.3483Z" fill="#322871"/>
<path d="M96.5985 85.0043H101.425V82.4932H96.5985V85.0043Z" fill="#8172DE"/>
<path d="M99.3646 66.4262H113.352V64.1309H99.3646V66.4262Z" fill="#322871"/>
<path d="M114.274 66.4262H119.1V64.1309H114.274V66.4262Z" fill="#8172DE"/>
<path d="M25.4445 83.8666H40.3541V81.5713H25.4445V83.8666Z" fill="#322871"/>
<path d="M70.6636 46.4551C79.1582 46.4551 86.0637 53.5764 86.0637 62.0709C86.0637 70.5655 79.1778 77.6868 70.6636 77.6868C62.1494 77.6868 55.0674 70.5655 55.0674 62.0709C55.0674 53.5764 61.9337 46.4551 70.6636 46.4551Z" fill="white"/>
<path d="M83.2779 53.3213C85.122 55.852 86.044 58.8339 86.044 62.0513C86.044 67.7993 83.0425 72.8411 78.4715 75.3718C74.8029 69.8592 70.6636 62.0513 70.6636 62.0513L68.1525 54.2433L83.2779 53.3213Z" fill="#322871"/>
<path d="M84.6709 68.486C82.3756 73.7632 76.863 77.6672 70.6637 77.6672C69.7417 77.6672 69.055 77.4318 68.3684 77.4318L70.6637 61.6001L84.6709 68.486Z" fill="#74BA60"/>
<path d="M70.6636 46.4551C79.1582 46.4551 86.0637 53.5764 86.0637 62.0709V62.3063L55.0674 60.9331C55.7344 52.8701 62.4045 46.4551 70.6636 46.4551Z" fill="#8172DE"/>
<path d="M42.2177 67.3483H47.0044V64.8176H42.2177V67.3483Z" fill="#8172DE"/>
<path d="M81.6888 85.0043H95.6764V82.4932H81.6888V85.0043Z" fill="#322871"/>
<path d="M46.4158 331.994H234.316C238.161 331.994 241.32 335.152 241.32 338.978V407.896C241.32 411.741 238.161 414.899 234.316 414.899H46.4158C42.5707 414.899 39.4122 411.76 39.4122 407.896V338.978C39.4122 335.133 42.5707 331.994 46.4158 331.994Z" fill="#E2E2E2"/>
<path d="M119.355 389.337C117.197 389.337 115.451 391.083 115.451 393.241C115.451 395.399 117.197 397.125 119.355 397.125C121.513 397.125 123.24 395.379 123.24 393.241C123.259 391.083 121.513 389.337 119.355 389.337ZM119.355 392.299C118.845 392.299 118.433 392.711 118.433 393.221C118.433 393.731 118.845 394.143 119.355 394.143C119.865 394.143 120.277 393.731 120.277 393.221C120.277 392.711 119.865 392.299 119.355 392.299Z" fill="#8172DE"/>
<path d="M108.703 389.337C106.545 389.337 104.799 391.083 104.799 393.241C104.799 395.399 106.545 397.125 108.703 397.125C110.861 397.125 112.587 395.379 112.587 393.241C112.587 391.103 110.841 389.337 108.703 389.337ZM108.703 392.299C108.193 392.299 107.781 392.711 107.781 393.221C107.781 393.731 108.193 394.143 108.703 394.143C109.213 394.143 109.625 393.731 109.625 393.221C109.625 392.711 109.193 392.299 108.703 392.299Z" fill="#8172DE"/>
<path d="M98.0306 389.337C95.8726 389.337 94.1266 391.083 94.1266 393.241C94.1266 395.399 95.8726 397.125 98.0306 397.125C100.189 397.125 101.915 395.379 101.915 393.241C101.915 391.103 100.169 389.337 98.0306 389.337ZM98.0306 392.299C97.5205 392.299 97.1085 392.711 97.1085 393.221C97.1085 393.731 97.5205 394.143 98.0306 394.143C98.5406 394.143 98.9526 393.731 98.9526 393.221C98.9526 392.711 98.5406 392.299 98.0306 392.299Z" fill="#322871"/>
<path d="M87.3583 389.337C85.2003 389.337 83.4543 391.083 83.4543 393.241C83.4543 395.399 85.2003 397.125 87.3583 397.125C89.5163 397.125 91.2427 395.379 91.2427 393.241C91.2623 391.083 89.5163 389.337 87.3583 389.337ZM87.3583 392.299C86.8482 392.299 86.4363 392.711 86.4363 393.221C86.4363 393.731 86.8482 394.143 87.3583 394.143C87.8684 394.143 88.2804 393.731 88.2804 393.221C88.2804 392.711 87.8684 392.299 87.3583 392.299Z" fill="#8172DE"/>
<path d="M76.706 389.337C74.548 389.337 72.8217 391.083 72.8217 393.241C72.8217 395.399 74.548 397.125 76.706 397.125C78.864 397.125 80.5903 395.379 80.5903 393.241C80.5903 391.103 78.8443 389.337 76.706 389.337ZM76.706 392.299C76.1959 392.299 75.784 392.711 75.784 393.221C75.784 393.731 76.1959 394.143 76.706 394.143C77.2161 394.143 77.628 393.731 77.628 393.221C77.6084 392.711 77.1964 392.299 76.706 392.299Z" fill="#8172DE"/>
<path d="M66.0336 389.337C63.8953 389.337 62.1493 391.083 62.1493 393.241C62.1493 395.399 63.8953 397.125 66.0336 397.125C68.172 397.125 69.918 395.379 69.918 393.241C69.918 391.103 68.172 389.337 66.0336 389.337ZM66.0336 392.299C65.5236 392.299 65.1116 392.711 65.1116 393.221C65.1116 393.731 65.5236 394.143 66.0336 394.143C66.5437 394.143 66.9557 393.731 66.9557 393.221C66.9557 392.711 66.5437 392.299 66.0336 392.299Z" fill="#8172DE"/>
<path d="M66.7792 349.807H148.566V359.812H66.7792V349.807Z" fill="#8172DE"/>
<path d="M66.3868 365.737H213.58V375.722H66.3868V365.737Z" fill="#322871"/>
<path d="M67.1715 349.787C69.9572 349.787 72.1937 352.043 72.1937 354.809C72.1937 357.575 69.9376 359.831 67.1715 359.831C64.4054 359.831 62.1493 357.575 62.1493 354.809C62.1493 352.043 64.3857 349.787 67.1715 349.787Z" fill="#322871"/>
<path d="M148.154 349.787C150.94 349.787 153.176 352.043 153.176 354.809C153.176 357.575 150.94 359.831 148.154 359.831C145.369 359.831 143.132 357.575 143.132 354.809C143.132 352.043 145.388 349.787 148.154 349.787Z" fill="#322871"/>
<path d="M67.1715 365.737C69.9572 365.737 72.1937 367.993 72.1937 370.759C72.1937 373.525 69.9376 375.781 67.1715 375.781C64.4054 375.781 62.1493 373.525 62.1493 370.759C62.1493 367.993 64.3857 365.737 67.1715 365.737Z" fill="#322871"/>
<path d="M213.58 365.737C216.366 365.737 218.602 367.993 218.602 370.759C218.602 373.525 216.346 375.781 213.58 375.781C210.814 375.781 208.558 373.525 208.558 370.759C208.558 367.993 210.794 365.737 213.58 365.737Z" fill="#74BA60"/>
<path d="M148.154 353.495C148.9 353.495 149.469 354.083 149.469 354.809C149.469 355.535 148.88 356.124 148.154 356.124C147.428 356.124 146.84 355.535 146.84 354.809C146.84 354.083 147.428 353.495 148.154 353.495Z" fill="#E2E2E2"/>
<path d="M213.58 369.445C214.325 369.445 214.894 370.033 214.894 370.759C214.894 371.485 214.306 372.073 213.58 372.073C212.854 372.073 212.266 371.485 212.266 370.759C212.266 370.033 212.854 369.445 213.58 369.445Z" fill="#E2E2E2"/>
<path d="M328.776 11.7708H560.307C563.073 11.7708 565.329 14.0464 565.329 16.7929V109.801C565.329 112.568 563.073 114.824 560.307 114.824H328.776C326.01 114.824 323.754 112.568 323.754 109.801V16.7929C323.754 14.0268 326.03 11.7708 328.776 11.7708Z" fill="#E2E2E2"/>
<path d="M345.432 48.9075H350.023C350.337 48.9075 350.65 49.2214 350.65 49.5352V53.8119C350.65 54.1258 350.337 54.4397 350.023 54.4397H345.432C345.118 54.4397 344.804 54.1258 344.804 53.8119V49.5352C344.804 49.2214 345.099 48.9075 345.432 48.9075Z" fill="#322871"/>
<path d="M355.712 53.6549H361.401V49.5352H355.712V53.6549Z" fill="#322871"/>
<path d="M369.621 53.6549H420.843V49.5352H369.621V53.6549Z" fill="#8172DE"/>
<path d="M433.026 53.6549H458.627V49.5352H433.026V53.6549Z" fill="#322871"/>
<path d="M474.42 53.6549H500.041V49.5352H474.42V53.6549Z" fill="#322871"/>
<path d="M506.691 53.6549H528.82V49.5352H506.691V53.6549Z" fill="#322871"/>
<path d="M355.712 39.275H361.401V35.1553H355.712V39.275Z" fill="#322871"/>
<path d="M369.621 39.7261H376.428V35.626H369.621V39.7261Z" fill="#8172DE"/>
<path d="M379.901 39.7261H399.185V35.626H379.901V39.7261Z" fill="#322871"/>
<path d="M433.026 34.0565H439.971V29.9368H433.026V34.0565Z" fill="#322871"/>
<path d="M433.026 40.3737H458.627V36.2539H433.026V40.3737Z" fill="#8172DE"/>
<path d="M474.42 40.3737H483.13V36.2539H474.42V40.3737Z" fill="#322871"/>
<path d="M506.691 40.3737H545.417V36.2539H506.691V40.3737Z" fill="#8172DE"/>
<path d="M345.432 68.0544H350.023C350.337 68.0544 350.65 68.2114 350.65 68.6822V72.802C350.65 73.2728 350.337 73.5867 350.023 73.5867H345.432C345.118 73.5867 344.804 73.2728 344.804 72.802V68.6822C344.804 68.2114 345.099 68.0544 345.432 68.0544Z" fill="#322871"/>
<path d="M355.712 72.7824H361.401V68.6626H355.712V72.7824Z" fill="#322871"/>
<path d="M369.621 72.7824H420.843V68.6626H369.621V72.7824Z" fill="#322871"/>
<path d="M433.026 72.7824H458.627V68.6626H433.026V72.7824Z" fill="#8172DE"/>
<path d="M474.42 72.7824H500.041V68.6626H474.42V72.7824Z" fill="#322871"/>
<path d="M506.691 72.7824H528.82V68.6626H506.691V72.7824Z" fill="#322871"/>
<path d="M345.432 87.0251H350.023C350.337 87.0251 350.65 87.339 350.65 87.8099V91.91C350.65 92.2239 350.337 92.5378 350.023 92.5378H345.432C345.118 92.5378 344.804 92.2239 344.804 91.91V87.8099C344.804 87.3194 345.099 87.0251 345.432 87.0251Z" fill="#322871"/>
<path d="M355.712 91.91H361.401V87.8098H355.712V91.91Z" fill="#322871"/>
<path d="M369.621 91.91H420.843V87.8098H369.621V91.91Z" fill="#322871"/>
<path d="M433.026 91.91H458.627V87.8098H433.026V91.91Z" fill="#322871"/>
<path d="M474.42 91.91H500.041V87.8098H474.42V91.91Z" fill="#322871"/>
<path d="M506.691 91.91H528.82V87.8098H506.691V91.91Z" fill="#322871"/>
<path d="M338.938 23.934H550.164V23.1296H338.938V23.934Z" fill="#322871"/>
<path d="M338.938 44.9444H550.164V44.1597H338.938V44.9444Z" fill="#322871"/>
<path d="M338.938 64.0914H550.164V63.2871H338.938V64.0914Z" fill="#322871"/>
<path d="M338.938 83.2191H550.164V82.4148H338.938V83.2191Z" fill="#322871"/>
<path d="M338.938 103.465H550.164V102.66H338.938V103.465Z" fill="#322871"/>
<path d="M352.848 103.151H353.652V23.4434H352.848V103.151Z" fill="#322871"/>
<path d="M363.912 103.151H364.716V23.4434H363.912V103.151Z" fill="#322871"/>
<path d="M427.631 103.151H428.435V23.4434H427.631V103.151Z" fill="#322871"/>
<path d="M466.219 103.151H467.004V23.4434H466.219V103.151Z" fill="#322871"/>
<path d="M502.729 103.151H503.513V23.4434H502.729V103.151Z" fill="#322871"/>
<path d="M549.36 103.151H550.165V23.4434H549.36V103.151Z" fill="#322871"/>
<path d="M338.938 103.151H339.723V23.4434H338.938V103.151Z" fill="#322871"/>
<path d="M15.8513 229.765H84.7494C86.6719 229.765 88.2414 231.354 88.2414 233.277V270.237C88.2414 272.159 86.6719 273.729 84.7494 273.729H15.8513C13.9287 273.729 12.3593 272.159 12.3593 270.237V233.277C12.3397 231.354 13.9091 229.765 15.8513 229.765Z" fill="#9F90FB"/>
<path d="M253.267 0H306.393C307.883 0 309.1 1.21631 309.1 2.70727V31.2121C309.1 32.703 307.883 33.9194 306.393 33.9194H253.267C251.776 33.9194 250.56 32.703 250.56 31.2121V2.70727C250.58 1.21631 251.776 0 253.267 0Z" fill="#8172DE"/>
<path d="M343.823 527.251H396.949C398.44 527.251 399.656 528.467 399.656 529.958V558.463C399.656 559.934 398.44 561.17 396.949 561.17H343.823C342.332 561.17 341.116 559.954 341.116 558.463V529.958C341.116 528.467 342.332 527.251 343.823 527.251Z" fill="#8172DE"/>
</svg>
