<svg width="132" height="38" viewBox="0 0 132 38" fill="none" xmlns="http://www.w3.org/2000/svg">
<g clip-path="url(#clip0_2142_373)">
<path d="M50.266 24.5684C54.8106 24.5684 58.9145 20.3956 58.9145 15.3966C58.9145 10.3975 54.8244 6.22473 50.266 6.22473H46.6303V20.9052C46.6303 22.9296 48.2554 24.5822 50.266 24.5822M41.1631 0.950235H50.266C57.7715 0.950235 64.3681 7.60188 64.3681 15.4103C64.3681 23.2188 57.7715 29.8566 50.266 29.8566C45.2394 29.8566 41.1631 25.7527 41.1631 20.6848V0.950235Z" fill="#F6F6F6"/>
<path d="M70.4688 8.4144C71.9149 8.4144 73.0854 9.58498 73.0854 11.031V20.2579C73.0854 22.9847 74.862 24.8025 77.4097 24.8025C79.9574 24.8025 81.7339 22.9847 81.7339 20.2579V11.031C81.7339 9.58498 82.9045 8.4144 84.3505 8.4144C85.7965 8.4144 86.9671 9.58498 86.9671 11.031V25.7252C86.9671 27.8598 85.2319 29.595 83.0973 29.595L82.1884 27.543C81.6926 27.9562 81.1005 28.3693 80.5083 28.6861C79.4616 29.2782 77.9606 29.8291 76.2804 29.8291C71.3227 29.8291 67.866 26.4138 67.866 20.9602V11.0448C67.866 9.59875 69.0366 8.42817 70.4826 8.42817" fill="#F6F6F6"/>
<path d="M106.178 19.1424C106.178 15.6858 103.906 13.4548 100.945 13.4548C97.9844 13.4548 95.7121 15.6858 95.7121 19.1424C95.7121 22.5991 97.9844 24.83 100.945 24.83C103.906 24.83 106.178 22.5991 106.178 19.1424ZM93.0955 0.950235C94.5415 0.950235 95.7121 2.12081 95.7121 3.56682V10.5077C96.1252 10.1496 96.621 9.81909 97.1718 9.50235C98.1221 9.00657 99.4028 8.45571 101.179 8.45571C106.413 8.45571 110.957 12.959 110.957 19.1424C110.957 25.3258 106.413 29.8291 101.179 29.8291C99.3615 29.8291 97.9017 29.2782 96.8551 28.6861C96.2629 28.3693 95.7121 27.9562 95.2576 27.543L94.3487 29.595C92.2141 29.595 90.4789 27.8598 90.4789 25.7252V3.56682C90.4789 2.12081 91.6495 0.950235 93.0955 0.950235Z" fill="#F6F6F6"/>
<path d="M114.4 36.7975C114.4 34.7731 115.46 32.969 117.072 31.7709C117.719 31.2889 118.173 30.6003 118.518 29.7878L118.972 28.6448L112.995 13.5649C112.018 11.1136 113.822 8.44194 116.452 8.44194L121.713 22.2135L124.701 13.6476C125.789 10.5352 128.709 8.45571 132 8.45571L127.937 18.9221C125.885 24.2379 123.82 29.7465 123.558 30.256C121.506 35.2551 119.675 37.1418 116.245 37.1418C115.736 37.1418 115.281 37.1005 114.965 37.0454L114.414 36.9077V36.7975H114.4Z" fill="#F6F6F6"/>
<path d="M27.4467 11.3752C29.8291 15.5066 28.2179 21.4008 23.7146 23.9899C19.2113 26.5927 13.3033 25.0365 10.9208 20.9188L9.72271 18.8393C9.32333 18.1645 9.55745 17.2969 10.246 16.8976L24.3067 8.77236C24.9815 8.37299 25.8629 8.6071 26.2485 9.29568L27.4467 11.3752ZM27.4329 0.371734L19.7759 4.79239C17.7377 5.96297 15.4792 4.04873 13.0279 5.4672C10.1221 7.14732 11.4717 9.59865 9.06168 10.9758L1.40471 15.3965C0.068875 16.1814 -0.399357 17.9029 0.38562 19.2387C0.991567 20.2991 2.18969 20.8087 3.31895 20.6021C3.89736 20.4919 4.47576 20.726 4.77873 21.2356L6.18343 23.6594C9.72271 29.7877 17.724 32.4456 24.4031 29.9667C24.7474 29.8428 25.133 29.829 25.4773 29.9805C25.9869 30.2146 26.6066 30.2146 27.1299 29.8979C27.6532 29.5949 27.97 29.0716 28.0251 28.5069C28.0664 28.1351 28.2592 27.8046 28.5484 27.5705C34.0432 23.0259 35.7509 14.763 32.2116 8.62087L30.8344 6.2384C30.5315 5.72886 30.5866 5.08159 30.9722 4.62713C31.7158 3.74576 31.8811 2.45123 31.2614 1.39083C30.4902 0.0549888 28.7825 -0.413243 27.4329 0.357962" fill="#F6F6F6"/>
</g>
<defs>
<clipPath id="clip0_2142_373">
<rect width="132" height="37.128" fill="white"/>
</clipPath>
</defs>
</svg>
