<svg width="1736" height="1576" viewBox="0 0 1736 1576" fill="none" xmlns="http://www.w3.org/2000/svg">
<path d="M1398.78 580.832C1520.22 791.531 1438.09 1092.13 1208.55 1224.16C979.015 1356.9 677.879 1277.54 556.441 1067.55L495.371 961.494C475.015 927.08 486.948 882.833 522.046 862.466L1238.74 448.092C1273.13 427.724 1318.06 439.664 1337.71 474.78L1398.78 580.832ZM1398.08 19.6717L1007.8 245.119C903.907 304.817 788.787 207.193 663.84 279.533C515.728 365.217 584.519 490.232 461.678 560.464L71.393 785.912C3.30376 825.945 -20.5626 913.736 19.4486 981.861C50.3345 1035.94 111.404 1061.93 168.964 1051.39C198.446 1045.77 227.928 1057.71 243.371 1083.7L314.97 1207.31C495.371 1519.84 903.205 1655.39 1243.65 1528.98C1261.2 1522.65 1280.85 1521.95 1298.4 1529.68C1324.38 1541.62 1355.96 1541.62 1382.64 1525.46C1409.31 1510.01 1425.46 1483.32 1428.26 1454.53C1430.37 1435.57 1440.2 1418.71 1454.94 1406.77C1735.02 1175 1822.06 753.605 1641.66 440.366L1571.46 318.864C1556.02 292.877 1558.83 259.868 1578.48 236.691C1616.39 191.742 1624.81 125.723 1593.22 71.644C1553.91 3.51814 1466.87 -20.361 1398.08 18.9694" fill="#412884"/>
</svg>
